<svg width="57" height="45" viewBox="0 0 57 45" fill="none" xmlns="http://www.w3.org/2000/svg">
<path d="M53.6232 0H36.0007C34.4007 0 33.1022 1.14867 33.1022 2.564V18.1532C33.1022 19.5685 34.4007 20.7172 36.0007 20.7172H44.4351C44.325 24.7991 43.2526 28.0656 41.2236 30.5219C39.6237 32.4603 37.2007 34.0654 33.9602 35.332C32.4704 35.9115 31.8269 37.4704 32.5225 38.7729L34.6094 42.6702C35.2818 43.9214 36.9455 44.4702 38.3832 43.9214C42.2207 42.4548 45.4612 40.5985 48.1045 38.3421C51.3277 35.5884 53.5362 32.4808 54.7304 29.0143C55.9246 25.5477 56.5216 20.8197 56.5216 14.8199V2.564C56.5216 1.14873 55.2231 0 53.6232 0Z" fill="black"/>
<path d="M6.14684 43.9111C9.938 42.4497 13.1611 40.5934 15.8218 38.3421C19.0739 35.5884 21.2941 32.4911 22.4883 29.0502C23.6824 25.6093 24.2794 20.8659 24.2794 14.8199V2.564C24.2794 1.14867 22.981 0 21.381 0H3.75847C2.15853 0 0.860031 1.14867 0.860031 2.564V18.1532C0.860031 19.5685 2.15853 20.7172 3.75847 20.7172H12.1929C12.0828 24.7991 11.0104 28.0656 8.98146 30.5219C7.38152 32.4603 4.95843 34.0654 1.71797 35.332C0.228171 35.9115 -0.415283 37.4704 0.280343 38.7729L2.36142 42.66C3.03392 43.9111 4.70922 44.465 6.14684 43.9111Z" fill="black"/>
</svg>
