<svg width="57" height="45" viewBox="0 0 57 45" fill="none" xmlns="http://www.w3.org/2000/svg">
<path d="M22.707 8.75431C24.1205 8.22995 24.7133 6.73754 24.0749 5.52748L21.8407 1.37294C21.2024 0.203621 19.6521 -0.321141 18.2842 0.203621C14.4085 1.65569 11.0799 3.55145 8.43534 5.85057C5.198 8.55263 3.00937 11.6585 1.82386 15.087C0.63835 18.5562 0 23.275 0 29.285V41.6679C0 42.999 1.2311 44.0881 2.73579 44.0881H20.6552C22.1599 44.0881 23.391 42.999 23.391 41.6679V25.8162C23.391 24.4847 22.1599 23.396 20.6552 23.396H12.0831C12.1743 19.3218 13.2686 16.055 15.2748 13.5941C16.9163 11.6185 19.3785 10.0051 22.707 8.75431Z" fill="black"/>
<path d="M54.8981 8.75432C56.3116 8.22996 56.9039 6.73755 56.266 5.52749L54.0318 1.41369C53.3935 0.243968 51.8432 -0.280391 50.4753 0.243968C46.6452 1.69604 43.3618 3.5918 40.672 5.85058C37.4342 8.59338 35.2005 11.6992 34.0145 15.1277C32.829 18.5155 32.2367 23.2351 32.2367 29.2854V41.6684C32.2367 42.9994 33.4678 44.0885 34.9725 44.0885H52.8919C54.3966 44.0885 55.6277 42.9994 55.6277 41.6684V25.8166C55.6277 24.4851 54.3966 23.3964 52.8919 23.3964H44.2742C44.3654 19.3222 45.4601 16.0554 47.4659 13.5946C49.1074 11.6185 51.5696 10.0051 54.8981 8.75432Z" fill="black"/>
</svg>
