<svg width="178" height="100" viewBox="0 0 178 100" fill="none" xmlns="http://www.w3.org/2000/svg">
<path d="M160.639 81.3134C160.413 95.1668 153.031 100.179 145.195 99.7149C137.359 99.2525 131.909 95.6191 126.344 95.6191L126.116 95.7464C120.55 95.7464 115.1 99.5072 107.264 99.9697C99.4281 100.432 92.0461 95.6724 91.8203 81.819C92.2746 69.0999 101.964 68.1646 110.218 53.1395C117.485 39.9088 126.116 40.9795 126.116 40.9795H126.344C126.344 40.9795 135.049 39.9662 142.242 53.1395C150.456 68.1852 160.185 68.5939 160.639 81.3134ZM112.122 35.2717C119.063 34.7454 124.092 26.429 123.354 16.6961C122.616 6.96341 116.391 -0.500096 109.45 0.0262097C102.509 0.552515 97.4804 8.86911 98.2184 18.6018C98.9564 28.3345 105.181 35.798 112.122 35.2717ZM138.429 35.4407C145.212 37.2896 152.812 31.0787 155.404 21.5681C157.997 12.0574 154.6 2.84864 147.817 0.99972C141.035 -0.849198 133.434 5.36174 130.842 14.8724C128.249 24.3827 131.646 33.5918 138.429 35.4407ZM169.853 27.8258C163.946 26.2155 157.328 31.624 155.07 39.9061C152.813 48.1882 155.771 56.2072 161.677 57.8173C167.584 59.4274 174.203 54.0189 176.46 45.7368C178.718 37.4551 175.76 29.4359 169.853 27.8258ZM100.148 39.9054C97.8901 31.6238 91.2717 26.2151 85.365 27.8252C79.4583 29.4352 76.5 37.4544 78.7577 45.7363C81.0154 54.018 87.634 59.4267 93.5406 57.8166C99.4471 56.2068 102.405 48.1876 100.148 39.9054Z" fill="#FF9966"/>
<path d="M92.7793 41.5703C92.7793 41.6615 92.776 41.7526 92.7695 41.8438C92.763 41.9349 92.7533 42.026 92.7402 42.1172C92.6947 42.1823 92.6491 42.2409 92.6035 42.293C92.5645 42.3385 92.5384 42.3971 92.5254 42.4688C92.4538 42.5208 92.3724 42.5924 92.2812 42.6836C92.1966 42.7747 92.1608 42.8659 92.1738 42.957H92.0371C91.959 43.0742 91.8678 43.1751 91.7637 43.2598C91.6595 43.3444 91.5488 43.4258 91.4316 43.5039L91.0898 43.7285C90.9792 43.8001 90.875 43.8848 90.7773 43.9824C90.7253 43.9889 90.6829 43.9987 90.6504 44.0117C90.6178 44.0247 90.5755 44.028 90.5234 44.0215C90.3216 44.1517 90.11 44.2656 89.8887 44.3633C89.6738 44.4609 89.4557 44.5586 89.2344 44.6562C89.0195 44.7474 88.8047 44.8451 88.5898 44.9492C88.375 45.0534 88.1699 45.1738 87.9746 45.3105C87.9551 45.304 87.929 45.3008 87.8965 45.3008C87.8379 45.3008 87.7793 45.3105 87.7207 45.3301C87.6621 45.3431 87.6035 45.3496 87.5449 45.3496C87.5189 45.3496 87.4831 45.3464 87.4375 45.3398C87.3984 45.3333 87.3691 45.3236 87.3496 45.3105C87.3171 45.291 87.2878 45.2617 87.2617 45.2227C87.2357 45.1836 87.2161 45.1413 87.2031 45.0957C87.1901 45.0436 87.1803 44.9948 87.1738 44.9492C87.1673 44.9036 87.1641 44.8646 87.1641 44.832C87.1641 44.793 87.1673 44.7507 87.1738 44.7051C87.1803 44.6595 87.1901 44.6172 87.2031 44.5781C87.3919 44.5651 87.5807 44.5163 87.7695 44.4316C87.9648 44.347 88.1504 44.2656 88.3262 44.1875C88.3717 44.168 88.4076 44.1452 88.4336 44.1191C88.4661 44.0866 88.4987 44.0605 88.5312 44.041C88.5638 44.015 88.5996 43.9922 88.6387 43.9727C88.6777 43.9531 88.7266 43.9434 88.7852 43.9434H88.8145C89.2246 43.7546 89.625 43.5495 90.0156 43.3281C90.4128 43.1068 90.8066 42.8822 91.1973 42.6543C91.2168 42.5957 91.2461 42.5371 91.2852 42.4785C91.3307 42.4199 91.373 42.3646 91.4121 42.3125C91.4512 42.2539 91.487 42.1953 91.5195 42.1367C91.5521 42.0781 91.5684 42.0195 91.5684 41.9609C91.5684 41.8438 91.513 41.7461 91.4023 41.668H91.3633C91.2852 41.668 91.2168 41.6582 91.1582 41.6387C91.0996 41.6126 91.0443 41.5898 90.9922 41.5703C90.9401 41.5443 90.8815 41.5247 90.8164 41.5117C90.7513 41.4922 90.6764 41.4857 90.5918 41.4922C90.5592 41.4661 90.5072 41.4434 90.4355 41.4238C90.3639 41.4043 90.3053 41.3945 90.2598 41.3945C90.0254 41.3945 89.7943 41.4108 89.5664 41.4434C89.3385 41.4694 89.1107 41.4857 88.8828 41.4922C88.8242 41.5247 88.7689 41.554 88.7168 41.5801C88.6647 41.6061 88.6029 41.6191 88.5312 41.6191C88.4987 41.6191 88.4694 41.6191 88.4434 41.6191C88.4173 41.6126 88.388 41.6061 88.3555 41.5996C88.2318 41.6517 88.0918 41.6973 87.9355 41.7363C87.7793 41.7689 87.623 41.8112 87.4668 41.8633C87.3171 41.9089 87.1771 41.9674 87.0469 42.0391C86.9167 42.1107 86.8158 42.2083 86.7441 42.332C86.7441 42.3646 86.7507 42.3939 86.7637 42.4199C86.7767 42.4395 86.7832 42.4655 86.7832 42.498V42.5371C86.7441 42.5762 86.7181 42.6217 86.7051 42.6738C86.6921 42.7194 86.6823 42.7682 86.6758 42.8203C86.6693 42.8659 86.6595 42.9147 86.6465 42.9668C86.64 43.0124 86.6172 43.0579 86.5781 43.1035C86.6042 43.2012 86.6172 43.3086 86.6172 43.4258C86.6172 43.556 86.6074 43.6862 86.5879 43.8164C86.5749 43.9466 86.5684 44.0768 86.5684 44.207C86.5684 44.3307 86.5814 44.4414 86.6074 44.5391C86.5684 44.5781 86.5521 44.6367 86.5586 44.7148C86.5651 44.793 86.5488 44.8516 86.5098 44.8906C86.5098 44.9427 86.5228 44.9785 86.5488 44.998C86.5814 45.0176 86.6009 45.0501 86.6074 45.0957C86.5814 45.2064 86.5684 45.3268 86.5684 45.457C86.5684 45.6458 86.5879 45.8379 86.627 46.0332C86.6725 46.2285 86.7246 46.4206 86.7832 46.6094C86.8874 46.5768 86.998 46.5508 87.1152 46.5312C87.2389 46.5052 87.3561 46.4922 87.4668 46.4922C87.4863 46.4922 87.5059 46.4954 87.5254 46.502C87.5449 46.502 87.5645 46.502 87.584 46.502C87.597 46.5736 87.623 46.6387 87.6621 46.6973C87.7012 46.7559 87.737 46.821 87.7695 46.8926C87.737 46.9382 87.7077 46.974 87.6816 47C87.6621 47.0326 87.6523 47.0749 87.6523 47.127C87.5612 47.1335 87.4863 47.1562 87.4277 47.1953C87.3691 47.2409 87.304 47.2897 87.2324 47.3418H87.1934C87.0827 47.3418 86.9915 47.3613 86.9199 47.4004C86.8483 47.446 86.7669 47.4948 86.6758 47.5469C86.5977 47.5143 86.5195 47.498 86.4414 47.498C86.3568 47.498 86.2721 47.5143 86.1875 47.5469C86.0833 47.5013 85.9987 47.4297 85.9336 47.332C85.8685 47.2409 85.8132 47.1367 85.7676 47.0195C85.722 46.9089 85.6797 46.7949 85.6406 46.6777C85.6081 46.5605 85.569 46.4531 85.5234 46.3555V46.1992C85.5234 46.0495 85.5104 45.9062 85.4844 45.7695C85.4648 45.6263 85.4551 45.4798 85.4551 45.3301C85.4551 45.2715 85.4583 45.2096 85.4648 45.1445C85.4779 45.0794 85.4974 45.0176 85.5234 44.959C85.5104 44.9004 85.5039 44.8451 85.5039 44.793V44.6074C85.5039 44.4121 85.5104 44.2168 85.5234 44.0215C85.543 43.8262 85.5527 43.6309 85.5527 43.4355C85.5527 43.2923 85.543 43.1458 85.5234 42.9961C85.4909 43.0091 85.4616 43.0221 85.4355 43.0352C85.4095 43.0482 85.3802 43.0547 85.3477 43.0547C85.3151 43.0547 85.2826 43.0514 85.25 43.0449C85.224 43.0384 85.1979 43.0319 85.1719 43.0254C85.1068 42.9668 85.0612 42.8952 85.0352 42.8105C85.0091 42.7259 84.9733 42.6478 84.9277 42.5762C84.9277 42.4525 84.9473 42.3516 84.9863 42.2734C85.0189 42.1888 85.0612 42.1139 85.1133 42.0488C85.1654 41.9772 85.2174 41.9089 85.2695 41.8438C85.3281 41.7786 85.377 41.6973 85.416 41.5996H85.4551C85.5592 41.5996 85.6634 41.5671 85.7676 41.502C85.8717 41.4303 85.9889 41.3945 86.1191 41.3945C86.1647 41.3359 86.2266 41.2871 86.3047 41.248C86.3828 41.2025 86.4642 41.1667 86.5488 41.1406C86.64 41.1146 86.7279 41.0983 86.8125 41.0918C86.9036 41.0788 86.9883 41.0723 87.0664 41.0723C87.0924 41.0267 87.1315 40.9974 87.1836 40.9844C87.2357 40.9648 87.2878 40.9486 87.3398 40.9355C87.3984 40.916 87.4505 40.8997 87.4961 40.8867C87.5482 40.8672 87.5905 40.8346 87.623 40.7891C87.6751 40.8021 87.724 40.8086 87.7695 40.8086C87.8542 40.8086 87.9355 40.7988 88.0137 40.7793C88.0918 40.7533 88.1699 40.7272 88.248 40.7012C88.3262 40.6686 88.4043 40.6393 88.4824 40.6133C88.5671 40.5872 88.6549 40.5742 88.7461 40.5742C88.7786 40.5742 88.8112 40.5775 88.8438 40.584C88.8763 40.584 88.9089 40.584 88.9414 40.584C88.9935 40.584 89.0228 40.5645 89.0293 40.5254C89.0423 40.4863 89.0651 40.457 89.0977 40.4375C89.1172 40.444 89.153 40.4473 89.2051 40.4473C89.3353 40.4473 89.4622 40.4375 89.5859 40.418C89.7096 40.3919 89.8366 40.3789 89.9668 40.3789C90.0254 40.3789 90.084 40.3822 90.1426 40.3887C90.2012 40.3952 90.2598 40.4115 90.3184 40.4375C90.3314 40.418 90.3444 40.4017 90.3574 40.3887C90.3704 40.3757 90.3802 40.3594 90.3867 40.3398C90.7057 40.3594 91.0052 40.4245 91.2852 40.5352C91.5716 40.6458 91.8678 40.7435 92.1738 40.8281C92.2129 40.8867 92.2585 40.9388 92.3105 40.9844L92.4766 41.1211C92.5352 41.1667 92.5905 41.2122 92.6426 41.2578C92.6947 41.3034 92.7402 41.3587 92.7793 41.4238V41.5703Z" fill="white"/>
<path d="M113.799 18.2871C113.779 18.3783 113.737 18.4531 113.672 18.5117C113.613 18.5638 113.542 18.6061 113.457 18.6387C113.372 18.6712 113.285 18.694 113.193 18.707C113.109 18.7135 113.031 18.7168 112.959 18.7168C112.926 18.7168 112.894 18.7168 112.861 18.7168C112.835 18.7103 112.806 18.707 112.773 18.707C112.741 18.707 112.725 18.7233 112.725 18.7559C112.725 18.7884 112.708 18.8112 112.676 18.8242C112.643 18.8112 112.611 18.8014 112.578 18.7949C112.546 18.7884 112.513 18.7852 112.48 18.7852C112.435 18.7852 112.389 18.7884 112.344 18.7949C112.305 18.8014 112.266 18.8047 112.227 18.8047C112.174 18.8047 112.135 18.7982 112.109 18.7852C112.09 18.7721 112.07 18.7591 112.051 18.7461C112.038 18.7266 112.021 18.707 112.002 18.6875C111.989 18.668 111.966 18.6517 111.934 18.6387C111.888 18.6191 111.849 18.6159 111.816 18.6289C111.79 18.6419 111.748 18.6224 111.689 18.5703C111.611 18.5052 111.543 18.4271 111.484 18.3359C111.432 18.2383 111.38 18.1374 111.328 18.0332C111.276 17.929 111.221 17.8249 111.162 17.7207C111.104 17.6165 111.035 17.5254 110.957 17.4473H110.879C110.762 17.4473 110.68 17.4961 110.635 17.5938C110.602 17.5742 110.57 17.5514 110.537 17.5254C110.505 17.4928 110.469 17.4668 110.43 17.4473C110.28 17.4928 110.124 17.5319 109.961 17.5645C109.798 17.597 109.635 17.6133 109.473 17.6133H109.336C109.297 17.6133 109.255 17.6068 109.209 17.5938C109.144 17.6198 109.085 17.6523 109.033 17.6914C108.981 17.724 108.923 17.7402 108.857 17.7402C108.818 17.7402 108.773 17.7272 108.721 17.7012C108.682 17.7012 108.662 17.7174 108.662 17.75C108.669 17.7826 108.649 17.7988 108.604 17.7988H108.516C108.424 17.7988 108.333 17.8021 108.242 17.8086C108.158 17.8151 108.07 17.8184 107.979 17.8184C107.855 17.8184 107.728 17.8021 107.598 17.7695C107.565 17.7891 107.529 17.7988 107.49 17.7988C107.464 17.8118 107.445 17.8346 107.432 17.8672C107.419 17.8932 107.406 17.9193 107.393 17.9453C107.38 17.9648 107.36 17.9844 107.334 18.0039C107.314 18.0169 107.285 18.0202 107.246 18.0137C107.233 18.0918 107.201 18.1536 107.148 18.1992C107.096 18.2448 107.07 18.3132 107.07 18.4043C106.999 18.4434 106.94 18.4922 106.895 18.5508C106.849 18.6094 106.803 18.6712 106.758 18.7363C106.712 18.8014 106.663 18.8633 106.611 18.9219C106.566 18.9805 106.507 19.026 106.436 19.0586C106.403 19.0977 106.393 19.1595 106.406 19.2441C106.335 19.3027 106.247 19.3548 106.143 19.4004C106.038 19.446 105.941 19.4688 105.85 19.4688C105.661 19.4688 105.531 19.3678 105.459 19.166C105.459 19.1009 105.465 19.0326 105.479 18.9609C105.485 18.8828 105.498 18.8112 105.518 18.7461C105.537 18.6745 105.566 18.6126 105.605 18.5605C105.645 18.502 105.7 18.4596 105.771 18.4336C105.771 18.375 105.752 18.3359 105.713 18.3164C105.674 18.2904 105.658 18.248 105.664 18.1895C105.84 18.1048 105.993 17.9941 106.123 17.8574C106.253 17.7207 106.37 17.5775 106.475 17.4277C106.585 17.2715 106.696 17.1152 106.807 16.959C106.917 16.8027 107.041 16.6628 107.178 16.5391V16.334C107.373 16.1257 107.5 15.8913 107.559 15.6309C107.63 15.6178 107.676 15.5853 107.695 15.5332C107.721 15.4811 107.734 15.4193 107.734 15.3477C107.767 15.3477 107.786 15.3346 107.793 15.3086C107.806 15.276 107.835 15.2663 107.881 15.2793C107.939 15.123 108.005 14.9798 108.076 14.8496C108.148 14.7194 108.219 14.5892 108.291 14.459C108.363 14.3223 108.424 14.1823 108.477 14.0391C108.535 13.8958 108.577 13.7363 108.604 13.5605C108.695 13.554 108.743 13.5117 108.75 13.4336C108.763 13.349 108.776 13.2741 108.789 13.209C108.887 13.1178 108.958 13.0104 109.004 12.8867C109.056 12.763 109.102 12.6361 109.141 12.5059C109.18 12.3691 109.222 12.2357 109.268 12.1055C109.32 11.9688 109.391 11.8483 109.482 11.7441V11.7148C109.482 11.6823 109.469 11.6628 109.443 11.6562C109.417 11.6432 109.404 11.6204 109.404 11.5879C109.411 11.5814 109.414 11.5749 109.414 11.5684C109.492 11.5358 109.551 11.4837 109.59 11.4121C109.629 11.334 109.688 11.2786 109.766 11.2461C109.902 11.3568 110.023 11.4251 110.127 11.4512C110.231 11.4707 110.368 11.487 110.537 11.5C110.622 11.5911 110.667 11.7018 110.674 11.832C110.687 11.9557 110.71 12.0794 110.742 12.2031C110.794 12.4115 110.85 12.6165 110.908 12.8184C110.973 13.0137 111.022 13.2155 111.055 13.4238C111.074 13.5475 111.11 13.6647 111.162 13.7754C111.214 13.8861 111.25 14 111.27 14.1172C111.283 14.2083 111.283 14.3125 111.27 14.4297C111.257 14.5404 111.27 14.638 111.309 14.7227L111.377 14.8789C111.41 14.9505 111.436 15.0254 111.455 15.1035C111.481 15.1816 111.504 15.2598 111.523 15.3379C111.576 15.5332 111.621 15.7448 111.66 15.9727C111.706 16.194 111.774 16.3958 111.865 16.5781C111.898 16.6432 111.947 16.6888 112.012 16.7148C112.083 16.7409 112.161 16.7604 112.246 16.7734C112.331 16.7799 112.412 16.7832 112.49 16.7832C112.575 16.7767 112.646 16.7734 112.705 16.7734H112.803C112.842 16.7734 112.881 16.7799 112.92 16.793C112.946 16.8451 112.959 16.8906 112.959 16.9297C112.959 17.0078 112.933 17.0697 112.881 17.1152C112.829 17.1608 112.803 17.2129 112.803 17.2715C112.803 17.304 112.816 17.3398 112.842 17.3789C112.816 17.3724 112.777 17.3691 112.725 17.3691C112.575 17.3691 112.428 17.3952 112.285 17.4473C112.337 17.5579 112.406 17.6523 112.49 17.7305C112.581 17.8021 112.676 17.8704 112.773 17.9355C112.839 17.8835 112.907 17.8574 112.979 17.8574C113.057 17.8574 113.128 17.877 113.193 17.916C113.265 17.9486 113.34 17.9648 113.418 17.9648C113.477 17.9648 113.519 17.9551 113.545 17.9355C113.597 17.9941 113.639 18.056 113.672 18.1211C113.704 18.1797 113.747 18.235 113.799 18.2871ZM110.742 16.7246C110.729 16.6139 110.706 16.5358 110.674 16.4902C110.648 16.4382 110.625 16.3763 110.605 16.3047C110.579 16.2135 110.56 16.1159 110.547 16.0117C110.54 15.9076 110.527 15.8066 110.508 15.709C110.462 15.4876 110.41 15.2663 110.352 15.0449C110.299 14.8236 110.231 14.6087 110.146 14.4004C110.173 14.3613 110.186 14.3255 110.186 14.293V14.2637C110.127 14.1986 110.085 14.1204 110.059 14.0293C110.033 13.9316 110.007 13.8372 109.98 13.7461C109.961 13.6484 109.932 13.5605 109.893 13.4824C109.86 13.3978 109.805 13.3294 109.727 13.2773C109.707 13.3164 109.697 13.362 109.697 13.4141C109.697 13.4596 109.701 13.502 109.707 13.541C109.72 13.5801 109.727 13.6224 109.727 13.668C109.661 13.7005 109.613 13.7526 109.58 13.8242C109.554 13.8893 109.508 13.9414 109.443 13.9805C109.391 14.1888 109.316 14.3874 109.219 14.5762C109.121 14.7585 109.017 14.9408 108.906 15.123C108.802 15.3053 108.701 15.4909 108.604 15.6797C108.506 15.862 108.428 16.054 108.369 16.2559C108.285 16.3145 108.226 16.3893 108.193 16.4805C108.167 16.5716 108.154 16.6628 108.154 16.7539C108.213 16.7865 108.278 16.806 108.35 16.8125C108.428 16.8125 108.503 16.8125 108.574 16.8125C108.646 16.8125 108.714 16.819 108.779 16.832C108.844 16.8451 108.903 16.8776 108.955 16.9297C109.04 16.9036 109.131 16.8874 109.229 16.8809C109.333 16.8678 109.417 16.8385 109.482 16.793C109.613 16.8385 109.753 16.8613 109.902 16.8613C109.98 16.8613 110.055 16.8548 110.127 16.8418C110.205 16.8288 110.28 16.8125 110.352 16.793C110.41 16.806 110.456 16.8288 110.488 16.8613C110.521 16.8874 110.57 16.8971 110.635 16.8906C110.667 16.8646 110.687 16.8385 110.693 16.8125C110.7 16.7799 110.716 16.7507 110.742 16.7246Z" fill="white"/>
<path d="M146.921 14.7598H146.882C146.869 14.7533 146.856 14.7533 146.843 14.7598C146.83 14.7663 146.823 14.776 146.823 14.7891C146.836 14.8411 146.843 14.877 146.843 14.8965C146.843 14.9746 146.817 15.043 146.765 15.1016C146.719 15.1536 146.696 15.1992 146.696 15.2383C146.696 15.2578 146.706 15.2741 146.726 15.2871C146.752 15.3001 146.771 15.3099 146.784 15.3164C146.752 15.3555 146.722 15.3978 146.696 15.4434C146.67 15.4889 146.641 15.528 146.608 15.5605C146.621 15.7884 146.647 16.013 146.687 16.2344C146.732 16.4492 146.755 16.6673 146.755 16.8887C146.755 16.9993 146.742 17.11 146.716 17.2207C146.696 17.3249 146.674 17.4323 146.647 17.543C146.621 17.6471 146.595 17.7546 146.569 17.8652C146.55 17.9694 146.54 18.0768 146.54 18.1875C146.455 18.3568 146.364 18.5195 146.267 18.6758C146.169 18.8255 146.097 18.9915 146.052 19.1738C145.902 19.265 145.772 19.3789 145.661 19.5156C145.557 19.6458 145.453 19.776 145.349 19.9062C145.121 19.9844 144.912 20.0885 144.724 20.2188C144.691 20.2253 144.662 20.2285 144.636 20.2285H144.558C144.31 20.2285 144.099 20.1829 143.923 20.0918C143.747 20.0007 143.594 19.8835 143.464 19.7402C143.34 19.5905 143.233 19.4212 143.142 19.2324C143.05 19.0436 142.966 18.8483 142.888 18.6465C142.738 18.7572 142.601 18.8841 142.478 19.0273C142.36 19.1641 142.24 19.3008 142.116 19.4375C142.077 19.4896 142.028 19.5514 141.97 19.623C141.918 19.6882 141.866 19.737 141.813 19.7695C141.787 19.7826 141.758 19.7956 141.726 19.8086C141.7 19.8151 141.67 19.8249 141.638 19.8379C141.455 19.9421 141.312 20.082 141.208 20.2578C141.078 20.3099 140.951 20.3685 140.827 20.4336C140.71 20.4987 140.596 20.5671 140.485 20.6387C140.362 20.6452 140.238 20.6549 140.114 20.668C139.997 20.6745 139.88 20.6777 139.763 20.6777C139.58 20.6777 139.45 20.668 139.372 20.6484C139.3 20.6224 139.242 20.5931 139.196 20.5605C139.157 20.5215 139.115 20.4759 139.069 20.4238C139.03 20.3717 138.952 20.3164 138.835 20.2578C138.802 20.1732 138.77 20.0885 138.737 20.0039C138.711 19.9193 138.672 19.8411 138.62 19.7695V19.6328C138.62 19.5742 138.617 19.5189 138.61 19.4668C138.61 19.4147 138.601 19.3691 138.581 19.3301C138.562 19.2845 138.529 19.2552 138.483 19.2422C138.483 19.0013 138.513 18.7637 138.571 18.5293C138.63 18.2949 138.679 18.0573 138.718 17.8164C138.75 17.6797 138.77 17.5397 138.776 17.3965C138.783 17.3639 138.786 17.3281 138.786 17.2891C138.786 17.25 138.793 17.2109 138.806 17.1719C138.819 17.1328 138.841 17.1003 138.874 17.0742C138.907 17.0482 138.929 17.0091 138.942 16.957C138.975 16.8659 138.994 16.765 139.001 16.6543C139.007 16.5436 139.017 16.4395 139.03 16.3418C139.063 16.1465 139.099 15.9512 139.138 15.7559C139.183 15.5605 139.235 15.3685 139.294 15.1797C139.287 15.1471 139.284 15.1178 139.284 15.0918V14.9941C139.284 14.7467 139.3 14.5059 139.333 14.2715C139.372 14.0371 139.392 13.7962 139.392 13.5488C139.392 13.4316 139.382 13.3079 139.362 13.1777C139.395 13.1126 139.431 13.054 139.47 13.002C139.515 12.9434 139.574 12.8978 139.646 12.8652C139.782 12.9368 139.916 13.015 140.046 13.0996C140.183 13.1777 140.313 13.2656 140.437 13.3633V13.5977C140.437 13.7865 140.43 13.9883 140.417 14.2031C140.41 14.4115 140.391 14.623 140.358 14.8379C140.332 15.0527 140.297 15.2611 140.251 15.4629C140.205 15.6647 140.144 15.8503 140.065 16.0195V16.332C139.948 16.5404 139.87 16.7585 139.831 16.9863C139.792 17.2142 139.746 17.4421 139.694 17.6699C139.681 17.7415 139.655 17.8262 139.616 17.9238C139.577 18.0215 139.558 18.1061 139.558 18.1777C139.558 18.2103 139.561 18.2428 139.567 18.2754C139.58 18.3079 139.59 18.3405 139.597 18.373C139.545 18.4902 139.515 18.6172 139.509 18.7539C139.509 18.8841 139.493 19.0143 139.46 19.1445C139.512 19.2292 139.558 19.3203 139.597 19.418C139.642 19.5091 139.691 19.6035 139.743 19.7012L139.841 19.6914C139.899 19.6914 139.961 19.6979 140.026 19.7109C140.091 19.7174 140.153 19.7207 140.212 19.7207C140.244 19.7207 140.277 19.7207 140.31 19.7207C140.342 19.7142 140.375 19.7077 140.407 19.7012C140.446 19.6296 140.498 19.5742 140.563 19.5352C140.629 19.4896 140.694 19.4505 140.759 19.418C140.83 19.3854 140.896 19.3496 140.954 19.3105C141.019 19.2715 141.071 19.2161 141.11 19.1445H141.247C141.26 19.125 141.283 19.099 141.315 19.0664C141.354 19.0339 141.39 19.0013 141.423 18.9688C141.455 18.9362 141.481 18.9036 141.501 18.8711C141.527 18.8385 141.537 18.8125 141.53 18.793C141.608 18.7604 141.674 18.7181 141.726 18.666C141.784 18.6074 141.84 18.5488 141.892 18.4902C141.944 18.4251 141.996 18.3633 142.048 18.3047C142.1 18.2461 142.162 18.1973 142.233 18.1582C142.227 18.1452 142.224 18.1289 142.224 18.1094C142.224 18.0508 142.24 18.0052 142.272 17.9727C142.312 17.9401 142.321 17.8815 142.302 17.7969L142.331 17.8066C142.364 17.8066 142.386 17.7969 142.399 17.7773C142.412 17.7578 142.422 17.735 142.429 17.709C142.442 17.6829 142.455 17.6602 142.468 17.6406C142.487 17.6146 142.513 17.5983 142.546 17.5918V17.5723C142.546 17.4551 142.569 17.3444 142.614 17.2402C142.666 17.1361 142.692 17.0254 142.692 16.9082C142.692 16.8757 142.689 16.8464 142.683 16.8203C142.676 16.7878 142.666 16.7552 142.653 16.7227C142.712 16.6576 142.748 16.5827 142.761 16.498C142.78 16.4134 142.79 16.3255 142.79 16.2344C142.797 16.1432 142.803 16.0521 142.81 15.9609C142.816 15.8698 142.842 15.7819 142.888 15.6973C142.888 15.6322 142.865 15.5866 142.819 15.5605L142.937 15.4043C142.976 15.3522 143.021 15.3099 143.073 15.2773H143.093C143.164 15.2773 143.226 15.2969 143.278 15.3359C143.337 15.3685 143.389 15.4076 143.435 15.4531C143.487 15.4922 143.539 15.5345 143.591 15.5801C143.643 15.6191 143.701 15.6484 143.767 15.668V15.8828C143.832 15.9089 143.881 15.9544 143.913 16.0195C143.907 16.1953 143.9 16.3711 143.894 16.5469C143.894 16.7227 143.894 16.8952 143.894 17.0645C143.894 17.3249 143.9 17.5853 143.913 17.8457C143.926 18.0996 143.959 18.3535 144.011 18.6074C144.082 18.679 144.154 18.7507 144.226 18.8223C144.304 18.8939 144.362 18.9753 144.401 19.0664H144.519C144.746 19.0664 144.922 18.9948 145.046 18.8516C145.17 18.7018 145.257 18.5293 145.31 18.334C145.407 18.2884 145.479 18.2266 145.524 18.1484C145.576 18.0638 145.616 17.9727 145.642 17.875C145.674 17.7773 145.7 17.6797 145.72 17.582C145.746 17.4779 145.785 17.3867 145.837 17.3086C145.843 17.2305 145.847 17.1523 145.847 17.0742V16.8301C145.847 16.4525 145.827 16.0781 145.788 15.707C145.756 15.3294 145.736 14.9551 145.729 14.584C145.703 14.5319 145.684 14.4701 145.671 14.3984L145.642 14.1836C145.635 14.112 145.619 14.0469 145.593 13.9883C145.573 13.9232 145.541 13.8776 145.495 13.8516C145.515 13.7865 145.524 13.7083 145.524 13.6172C145.524 13.5326 145.515 13.4479 145.495 13.3633C145.482 13.2786 145.466 13.194 145.446 13.1094C145.498 13.0638 145.541 13.0182 145.573 12.9727C145.606 12.9271 145.661 12.9043 145.739 12.9043C145.785 12.9043 145.824 12.9173 145.856 12.9434C145.896 12.9694 145.931 12.9987 145.964 13.0312C145.996 13.0638 146.029 13.0931 146.062 13.1191C146.101 13.1452 146.146 13.1582 146.198 13.1582C146.211 13.1582 146.224 13.1582 146.237 13.1582C146.257 13.1517 146.276 13.1484 146.296 13.1484C146.361 13.2135 146.413 13.2949 146.452 13.3926C146.498 13.4902 146.537 13.5944 146.569 13.7051C146.608 13.8092 146.647 13.9134 146.687 14.0176C146.732 14.1217 146.787 14.2161 146.853 14.3008C146.853 14.3203 146.849 14.3398 146.843 14.3594C146.843 14.3724 146.843 14.3887 146.843 14.4082C146.843 14.4668 146.853 14.5254 146.872 14.584C146.892 14.6426 146.908 14.7012 146.921 14.7598Z" fill="white"/>
<path d="M167.422 45.7695C167.422 45.8802 167.393 45.9779 167.334 46.0625C167.282 46.1406 167.262 46.2383 167.275 46.3555C167.184 46.4076 167.109 46.4759 167.051 46.5605C166.992 46.6452 166.937 46.7331 166.885 46.8242C166.455 47.1042 165.993 47.3288 165.498 47.498C165.01 47.6738 164.505 47.7617 163.984 47.7617C163.952 47.7617 163.923 47.7454 163.896 47.7129C163.87 47.6868 163.844 47.6576 163.818 47.625C163.792 47.5924 163.763 47.5599 163.73 47.5273C163.704 47.5013 163.672 47.4883 163.633 47.4883C163.587 47.4883 163.551 47.498 163.525 47.5176C163.525 47.5046 163.525 47.4915 163.525 47.4785C163.532 47.472 163.535 47.4622 163.535 47.4492C163.535 47.3711 163.525 47.2897 163.506 47.2051C163.486 47.127 163.477 47.0488 163.477 46.9707C163.477 46.8796 163.493 46.8047 163.525 46.7461H163.643C163.708 46.7461 163.77 46.7428 163.828 46.7363C163.893 46.7233 163.962 46.7168 164.033 46.7168C164.105 46.7168 164.17 46.7363 164.229 46.7754C164.587 46.7624 164.925 46.6973 165.244 46.5801C165.57 46.4564 165.898 46.3359 166.23 46.2188C166.283 46.1471 166.312 46.069 166.318 45.9844C166.331 45.8932 166.357 45.8086 166.396 45.7305C166.227 45.5872 166.055 45.4766 165.879 45.3984C165.71 45.3138 165.511 45.2845 165.283 45.3105C165.146 45.2259 165 45.1771 164.844 45.1641C164.694 45.151 164.541 45.1315 164.385 45.1055C164.346 45.099 164.303 45.0924 164.258 45.0859C164.219 45.0729 164.176 45.0664 164.131 45.0664C164.098 45.0664 164.066 45.0762 164.033 45.0957C164.007 45.1087 164.001 45.1315 164.014 45.1641C163.981 45.112 163.936 45.0827 163.877 45.0762C163.825 45.0632 163.779 45.0371 163.74 44.998C163.532 44.985 163.35 44.9492 163.193 44.8906C163.037 44.8255 162.865 44.7539 162.676 44.6758C162.624 44.6562 162.572 44.6432 162.52 44.6367C162.474 44.6237 162.428 44.6042 162.383 44.5781C162.266 44.5195 162.171 44.4414 162.1 44.3438C162.028 44.2461 161.973 44.1387 161.934 44.0215C161.888 43.8978 161.855 43.7708 161.836 43.6406C161.816 43.5104 161.797 43.39 161.777 43.2793C161.836 43.1751 161.891 43.0677 161.943 42.957C161.989 42.8464 162.028 42.7292 162.061 42.6055C162.1 42.5859 162.139 42.5697 162.178 42.5566C162.217 42.5436 162.259 42.5273 162.305 42.5078C162.298 42.4948 162.295 42.4785 162.295 42.459C162.295 42.4264 162.305 42.3939 162.324 42.3613C162.35 42.3288 162.357 42.2962 162.344 42.2637C162.487 42.1335 162.624 42 162.754 41.8633C162.891 41.7201 163.008 41.5638 163.105 41.3945C163.203 41.362 163.281 41.3132 163.34 41.248C163.398 41.1829 163.457 41.1178 163.516 41.0527C163.574 40.9811 163.639 40.9193 163.711 40.8672C163.783 40.8086 163.874 40.7728 163.984 40.7598C164.01 40.7142 164.046 40.6784 164.092 40.6523C164.137 40.6198 164.183 40.5905 164.229 40.5645C164.274 40.5384 164.316 40.5091 164.355 40.4766C164.395 40.444 164.424 40.3984 164.443 40.3398C164.548 40.3398 164.642 40.3203 164.727 40.2812C164.818 40.2422 164.906 40.1999 164.99 40.1543C165.075 40.1087 165.16 40.0664 165.244 40.0273C165.335 39.9883 165.433 39.9688 165.537 39.9688C165.563 39.9688 165.589 39.972 165.615 39.9785C165.641 39.9785 165.671 39.9818 165.703 39.9883C165.749 40.0339 165.778 40.0892 165.791 40.1543C165.811 40.2129 165.824 40.278 165.83 40.3496C165.837 40.4212 165.84 40.4928 165.84 40.5645C165.846 40.6361 165.859 40.7012 165.879 40.7598C165.82 40.8704 165.755 40.9811 165.684 41.0918C165.618 41.2025 165.531 41.2871 165.42 41.3457H165.4C165.355 41.3522 165.312 41.3424 165.273 41.3164C165.234 41.2904 165.189 41.2773 165.137 41.2773C165.104 41.2773 165.078 41.2871 165.059 41.3066L165.01 41.3555C164.997 41.3685 164.977 41.3815 164.951 41.3945C164.932 41.4076 164.902 41.4076 164.863 41.3945C164.772 41.4271 164.736 41.4824 164.756 41.5605C164.632 41.5736 164.528 41.6126 164.443 41.6777C164.359 41.7363 164.281 41.8047 164.209 41.8828C164.137 41.9544 164.066 42.0228 163.994 42.0879C163.923 42.1465 163.838 42.179 163.74 42.1855C163.63 42.3809 163.493 42.5534 163.33 42.7031C163.174 42.8529 163.044 43.0221 162.939 43.2109C162.959 43.263 162.972 43.3184 162.979 43.377C162.985 43.4355 162.995 43.4974 163.008 43.5625C163.066 43.6406 163.135 43.709 163.213 43.7676C163.298 43.8262 163.379 43.8848 163.457 43.9434H163.486C163.617 43.9434 163.737 43.9694 163.848 44.0215C163.958 44.0671 164.076 44.0898 164.199 44.0898C164.264 44.0898 164.32 44.0768 164.365 44.0508C164.535 44.0898 164.701 44.1224 164.863 44.1484C165.033 44.1745 165.202 44.194 165.371 44.207C165.456 44.2201 165.54 44.2266 165.625 44.2266C165.716 44.2266 165.801 44.2363 165.879 44.2559C165.951 44.2754 166.022 44.3014 166.094 44.334C166.165 44.36 166.237 44.3893 166.309 44.4219C166.458 44.487 166.598 44.5586 166.729 44.6367C166.865 44.7148 166.986 44.8092 167.09 44.9199C167.194 45.0241 167.275 45.1478 167.334 45.291C167.393 45.4277 167.422 45.5872 167.422 45.7695Z" fill="white"/>
<path d="M141.456 54.6262H139.927C138.7 54.6262 137.523 54.1391 136.656 53.2713L134.739 51.3549C133.871 50.4875 132.695 50 131.468 50H124.132C123.398 50.061 122.712 50.2704 121.927 50.7925L121.917 50.8007C121.362 51.1727 118.071 54.5186 117.596 54.993C115.407 57.1823 116.034 63.2035 120.376 63.8145C123.235 64.2137 125.674 62.0078 125.674 59.2526V57.872C125.674 55.8642 126.967 54.1684 128.758 53.53V55.2167C127.84 55.752 127.216 56.7359 127.216 57.872V59.2526C127.216 62.6538 124.449 65.421 121.047 65.421C120.88 65.421 120.712 65.3864 120.544 65.3729C117.712 67.0216 112.724 69.9499 110.797 71.2401C110.623 71.3489 110.46 71.4667 110.296 71.5887C108.079 73.2393 106.757 76.0257 107.284 79.1081C107.389 79.7188 107.59 80.2978 107.837 80.854L107.819 80.8423H103.313C102.036 80.8423 101 81.878 101 83.1555C101 84.4329 102.036 85.4686 103.313 85.4686H122.567C123.268 85.4686 123.857 85.0044 124.059 84.381C124.56 82.8388 122.244 80.9862 120.179 80.8619C120.717 79.9466 121.047 78.8943 121.047 77.7581C121.047 76.1244 120.415 74.585 119.267 73.4227L120.364 72.3388C121.74 73.7313 122.59 75.6455 122.59 77.7579C122.59 78.2943 122.498 78.8019 122.378 79.2992C123.599 79.2992 125.196 79.2992 125.674 79.2992V83.9263C125.674 84.778 126.364 85.4684 127.216 85.4684H132.953C134.136 85.4684 134.9 84.1786 134.303 83.1575C133.592 81.9414 132.337 81.0823 130.871 80.8996L131.214 78.1561C133.068 77.0179 134.434 75.1276 134.81 72.939C135.335 69.8762 134.032 67.1105 131.842 65.4558V62.3366H136.469C138.165 62.3366 140.267 61.1465 141.14 59.6917L142.778 56.9614C143.395 55.9338 142.654 54.6262 141.456 54.6262ZM133.384 55.7828C132.746 55.7828 132.228 55.2652 132.228 54.6262C132.228 53.9877 132.746 53.4697 133.384 53.4697C134.023 53.4697 134.541 53.9877 134.541 54.6262C134.541 55.2652 134.023 55.7828 133.384 55.7828Z" fill="#FFE8D6"/>
<path d="M17.5615 28.7949V28.918C17.5615 28.9531 17.5557 28.9883 17.5439 29.0234C17.415 29.2695 17.2568 29.457 17.0693 29.5859C16.8818 29.7148 16.6475 29.7793 16.3662 29.7793C16.1787 29.7793 16.0381 29.7617 15.9443 29.7266C15.8623 29.6914 15.751 29.627 15.6104 29.5332C15.3994 29.5566 15.1592 29.5801 14.8896 29.6035C14.6201 29.6152 14.3506 29.6445 14.0811 29.6914C13.8115 29.7266 13.5537 29.7793 13.3076 29.8496C13.0732 29.9199 12.874 30.0254 12.71 30.166C12.6045 30.9746 12.5459 31.7832 12.5342 32.5918C12.5342 33.3887 12.5225 34.1914 12.499 35C12.5928 35.2461 12.6572 35.5156 12.6924 35.8086C12.7275 36.1133 12.751 36.3887 12.7627 36.6348C12.8447 36.7754 12.9092 36.916 12.9561 37.0566C13.0029 37.209 13.0498 37.3613 13.0967 37.5137C13.1436 37.666 13.1963 37.8125 13.2549 37.9531C13.3252 38.0938 13.4131 38.2227 13.5186 38.3398C13.6123 38.3398 13.6943 38.3457 13.7646 38.3574C13.8467 38.3809 13.9287 38.4043 14.0107 38.4277V38.5332C14.0107 38.709 14.0635 38.8379 14.1689 38.9199C14.2744 39.002 14.3916 39.0898 14.5205 39.1836C14.5557 39.3125 14.5732 39.4355 14.5732 39.5527C14.5732 39.752 14.5264 39.9395 14.4326 40.1152C14.3506 40.291 14.21 40.4141 14.0107 40.4844C13.8936 40.4844 13.7822 40.4668 13.6768 40.4316C13.5713 40.4082 13.46 40.3965 13.3428 40.3965C13.2607 40.3965 13.1729 40.4082 13.0791 40.4316C13.0205 40.4082 12.9678 40.373 12.9209 40.3262C12.8857 40.291 12.8447 40.2559 12.7979 40.2207C12.751 40.1855 12.6982 40.1562 12.6396 40.1328C12.5928 40.1094 12.5283 40.1035 12.4463 40.1152C12.3877 39.9512 12.2939 39.7988 12.165 39.6582C12.0361 39.5176 11.8779 39.459 11.6904 39.4824C11.7021 39.4355 11.708 39.3652 11.708 39.2715C11.708 39.1074 11.6729 38.9551 11.6025 38.8145C11.5439 38.6738 11.4502 38.5625 11.3213 38.4805C11.2627 38.2109 11.21 37.9121 11.1631 37.584C11.1162 37.2676 11.0166 36.9922 10.8643 36.7578C10.8643 36.418 10.8291 36.0898 10.7588 35.7734C10.6885 35.4688 10.624 35.1523 10.5654 34.8242C10.6123 34.6367 10.6357 34.4258 10.6357 34.1914C10.6357 34.0273 10.6299 33.8691 10.6182 33.7168C10.6064 33.5527 10.6006 33.3945 10.6006 33.2422C10.6006 33.0781 10.6123 32.9199 10.6357 32.7676C10.6592 32.6035 10.7178 32.4453 10.8115 32.293C10.7412 32.1758 10.6943 32.0586 10.6709 31.9414C10.6475 31.8125 10.6357 31.6836 10.6357 31.5547C10.6357 31.3555 10.6475 31.1621 10.6709 30.9746L10.7412 30.4121C10.7178 30.4004 10.6768 30.3945 10.6182 30.3945C10.501 30.3945 10.4014 30.418 10.3193 30.4648L10.0557 30.5879C9.99707 30.5762 9.94434 30.5703 9.89746 30.5703H9.73926C9.56348 30.5703 9.3877 30.5996 9.21191 30.6582C9.04785 30.7051 8.90137 30.793 8.77246 30.9219C8.37402 30.9219 7.97559 30.9629 7.57715 31.0449C7.17871 31.1152 6.78027 31.2031 6.38184 31.3086C5.99512 31.4141 5.6084 31.5312 5.22168 31.6602C4.83496 31.7773 4.44824 31.8828 4.06152 31.9766C3.96777 32.4336 3.89746 32.8965 3.85059 33.3652C3.80371 33.8223 3.78027 34.291 3.78027 34.7715V35.1934C3.78027 35.3457 3.79199 35.4922 3.81543 35.6328C3.82715 35.7266 3.85645 35.8086 3.90332 35.8789C3.96191 35.9609 3.99121 36.0488 3.99121 36.1426C3.99121 36.2246 3.97363 36.2891 3.93848 36.3359C4.02051 36.4766 4.14355 36.5996 4.30762 36.7051C4.4834 36.6465 4.63574 36.6172 4.76465 36.6172C4.97559 36.6172 5.1748 36.6641 5.3623 36.7578C5.5498 36.8633 5.74902 36.9336 5.95996 36.9688C5.91309 37.1328 5.84277 37.291 5.74902 37.4434C5.65527 37.6074 5.59668 37.7832 5.57324 37.9707C5.52637 37.9941 5.47949 38.0059 5.43262 38.0059C5.39746 38.0059 5.3623 38.0059 5.32715 38.0059C5.29199 38.0176 5.2627 38.041 5.23926 38.0762C5.22754 38.1113 5.2334 38.1816 5.25684 38.2871C5.09277 38.3691 4.92871 38.4219 4.76465 38.4453C4.60059 38.4805 4.43066 38.5039 4.25488 38.5156C4.09082 38.5273 3.9209 38.5332 3.74512 38.5332C3.58105 38.5332 3.41113 38.5391 3.23535 38.5508C3.23535 38.4805 3.21777 38.4219 3.18262 38.375C3.15918 38.3398 3.12402 38.3105 3.07715 38.2871C3.03027 38.2754 2.97754 38.2578 2.91895 38.2344C2.87207 38.2109 2.83105 38.1816 2.7959 38.1465C2.70215 38.0645 2.62598 37.9531 2.56738 37.8125C2.52051 37.6836 2.46777 37.543 2.40918 37.3906C2.3623 37.25 2.30957 37.1094 2.25098 36.9688C2.19238 36.8281 2.12207 36.6992 2.04004 36.582C2.0166 36.3242 1.99902 36.0723 1.9873 35.8262C1.97559 35.5801 1.96973 35.3281 1.96973 35.0703C1.96973 34.5898 1.9873 34.1211 2.02246 33.6641C2.05762 33.1953 2.08691 32.7148 2.11035 32.2227C2.00488 32.1172 1.88184 32.0703 1.74121 32.082C1.6123 32.0938 1.4834 32.082 1.35449 32.0469C1.21387 31.8711 1.09668 31.6777 1.00293 31.4668C0.90918 31.2441 0.862305 31.0156 0.862305 30.7812C0.862305 30.6641 0.879883 30.541 0.915039 30.4121C1.02051 30.377 1.1377 30.3418 1.2666 30.3066C1.39551 30.2715 1.46582 30.1777 1.47754 30.0254C1.55957 30.0723 1.65918 30.0957 1.77637 30.0957C1.89355 30.0957 2.01074 30.0781 2.12793 30.043C2.24512 30.0078 2.3623 29.9785 2.47949 29.9551C2.52637 29.7676 2.56152 29.5859 2.58496 29.4102C2.62012 29.2227 2.62598 29.0293 2.60254 28.8301C2.7666 28.584 2.87207 28.3145 2.91895 28.0215C2.97754 27.7285 3.01855 27.4473 3.04199 27.1777V26.9316C3.04199 26.8496 3.04785 26.7676 3.05957 26.6855C3.08301 26.5566 3.11816 26.4102 3.16504 26.2461C3.21191 26.082 3.25293 25.9297 3.28809 25.7891C3.34668 25.5664 3.38184 25.3555 3.39355 25.1562C3.41699 24.957 3.42871 24.752 3.42871 24.541V24.4707C3.42871 24.4121 3.40527 24.3711 3.3584 24.3477C3.31152 24.3125 3.28809 24.2656 3.28809 24.207L3.30566 24.1719C3.35254 23.7969 3.40527 23.4277 3.46387 23.0645C3.53418 22.6895 3.62793 22.3203 3.74512 21.957C3.65137 21.6875 3.60449 21.3828 3.60449 21.043C3.60449 20.5977 3.6748 20.1699 3.81543 19.7598C3.74512 19.5723 3.70996 19.3906 3.70996 19.2148C3.70996 19.0742 3.71582 18.9336 3.72754 18.793C3.75098 18.6523 3.75684 18.5117 3.74512 18.3711C3.8623 18.3125 3.95605 18.2305 4.02637 18.125C4.1084 18.0195 4.20215 17.9316 4.30762 17.8613C4.65918 17.8496 4.95215 17.9668 5.18652 18.2129C5.43262 18.459 5.55566 18.7578 5.55566 19.1094C5.55566 19.3789 5.47949 19.6367 5.32715 19.8828C5.37402 20.1055 5.39746 20.3633 5.39746 20.6562C5.39746 21.0898 5.36816 21.5234 5.30957 21.957C5.25098 22.3906 5.2334 22.8301 5.25684 23.2754C5.18652 23.4395 5.15137 23.6387 5.15137 23.873C5.16309 24.1074 5.15723 24.3066 5.13379 24.4707C5.11035 24.6348 5.0752 24.8047 5.02832 24.9805C4.98145 25.1445 4.95215 25.3086 4.94043 25.4727C4.92871 25.7422 4.91699 26.0117 4.90527 26.2812C4.90527 26.5508 4.87598 26.8086 4.81738 27.0547C4.79395 27.1484 4.75879 27.2305 4.71191 27.3008C4.67676 27.3594 4.64746 27.4297 4.62402 27.5117C4.57715 27.7578 4.55957 28.0098 4.57129 28.2676C4.59473 28.5137 4.59473 28.7656 4.57129 29.0234C4.55957 29.1055 4.53613 29.1875 4.50098 29.2695C4.47754 29.3516 4.46582 29.4395 4.46582 29.5332C4.46582 29.5801 4.47754 29.6387 4.50098 29.709C5.56738 29.6152 6.62793 29.457 7.68262 29.2344C8.7373 29.0117 9.79785 28.8184 10.8643 28.6543C10.9463 28.502 10.9873 28.3438 10.9873 28.1797C10.9873 28.0859 10.9697 27.9922 10.9346 27.8984C11.0518 27.5117 11.1396 27.125 11.1982 26.7383C11.2686 26.3398 11.3271 25.9473 11.374 25.5605C11.4209 25.1738 11.4619 24.7871 11.4971 24.4004C11.5322 24.002 11.5791 23.6094 11.6377 23.2227L11.7432 22.625C11.7783 22.4258 11.8252 22.2324 11.8838 22.0449C11.9072 21.9746 11.9307 21.9043 11.9541 21.834C11.9893 21.7637 12.0068 21.6992 12.0068 21.6406C12.0068 21.582 11.9717 21.541 11.9014 21.5176C11.8428 21.4941 11.8135 21.4648 11.8135 21.4297C11.8135 21.4062 11.8193 21.3945 11.8311 21.3945C11.8545 21.3828 11.8721 21.3828 11.8838 21.3945C11.9424 21.2891 11.9775 21.1777 11.9893 21.0605C12.001 20.9434 12.0068 20.8262 12.0068 20.709C12.0186 20.5918 12.0361 20.4805 12.0596 20.375C12.083 20.2578 12.1299 20.1523 12.2002 20.0586C12.1885 19.9766 12.165 19.9004 12.1299 19.8301C12.0947 19.7598 12.0771 19.6777 12.0771 19.584C12.0654 19.5723 12.0654 19.5605 12.0771 19.5488C12.1006 19.4434 12.1123 19.3555 12.1123 19.2852C12.124 19.2031 12.1299 19.1094 12.1299 19.0039C12.1299 18.8633 12.1943 18.752 12.3232 18.6699C12.2646 18.4707 12.2236 18.2539 12.2002 18.0195C12.1768 17.7852 12.165 17.5566 12.165 17.334C12.165 17.0293 12.2354 16.7773 12.376 16.5781C12.5283 16.3672 12.7744 16.2617 13.1143 16.2617C13.29 16.2617 13.4541 16.2969 13.6064 16.3672C13.7705 16.4375 13.9053 16.5371 14.0107 16.666C14.0693 16.9355 14.0986 17.1875 14.0986 17.4219C14.0986 17.5859 14.0869 17.7441 14.0635 17.8965C14.0518 18.0371 14.0459 18.1895 14.0459 18.3535C14.0459 18.4824 14.0576 18.6055 14.0811 18.7227C14.1045 18.8281 14.1279 18.9395 14.1514 19.0566C14.0459 19.2207 13.9697 19.4023 13.9229 19.6016C13.876 19.8008 13.8408 20.0059 13.8174 20.2168C13.8057 20.4277 13.7939 20.6445 13.7822 20.8672C13.7822 21.0781 13.7764 21.2715 13.7646 21.4473C13.7295 21.834 13.6709 22.2148 13.5889 22.5898C13.5186 22.9648 13.4365 23.3398 13.3428 23.7148C13.3779 23.8438 13.3955 23.9609 13.3955 24.0664C13.3955 24.2773 13.3662 24.4883 13.3076 24.6992C13.249 24.8984 13.2314 25.0977 13.2549 25.2969C13.1729 25.5078 13.1201 25.7246 13.0967 25.9473C13.0732 26.1582 13.0557 26.3809 13.0439 26.6152L13.0088 27.3008C12.9971 27.5234 12.9561 27.7402 12.8857 27.9512C12.9092 28.0098 12.9502 28.0449 13.0088 28.0566C13.0791 28.0566 13.1025 28.1035 13.0791 28.1973C13.3486 28.1152 13.6357 28.0801 13.9404 28.0918C14.2451 28.0918 14.5322 28.0918 14.8018 28.0918C14.9775 28.0918 15.1533 28.0918 15.3291 28.0918C15.5049 28.0801 15.6807 28.0566 15.8564 28.0215C16.0322 27.9746 16.208 27.9219 16.3838 27.8633C16.5713 27.793 16.7529 27.7578 16.9287 27.7578C17.1748 27.7578 17.3623 27.8457 17.4912 28.0215C17.5146 28.1504 17.5322 28.2793 17.5439 28.4082C17.5557 28.5371 17.5615 28.666 17.5615 28.7949Z" fill="#FF5E62"/>
<path d="M35.5967 25.1738C35.5967 25.8418 35.5498 26.4922 35.4561 27.125C35.374 27.7461 35.251 28.3789 35.0869 29.0234C34.9346 29.1406 34.8408 29.2871 34.8057 29.4629C34.7705 29.6387 34.7119 29.8027 34.6299 29.9551C34.5596 30.084 34.4658 30.2246 34.3486 30.377C34.2314 30.5176 34.1025 30.6699 33.9619 30.834C33.8213 30.9863 33.6807 31.1445 33.54 31.3086C33.3994 31.4727 33.2822 31.6367 33.1885 31.8008C32.8369 31.918 32.585 32.1699 32.4326 32.5566C32.2451 32.627 32.0518 32.709 31.8525 32.8027C31.6533 32.8848 31.5127 33.0312 31.4307 33.2422C30.9971 33.4648 30.5869 33.7227 30.2002 34.0156C29.8252 34.2969 29.415 34.543 28.9697 34.7539C28.9111 34.8125 28.8408 34.8594 28.7588 34.8945C28.6885 34.918 28.6123 34.9473 28.5303 34.9824C28.46 35.0176 28.3896 35.0586 28.3193 35.1055C28.2607 35.1641 28.2256 35.2344 28.2139 35.3164C28.167 35.3164 28.1318 35.3047 28.1084 35.2812C28.0967 35.2695 28.0615 35.2578 28.0029 35.2461C27.874 35.3164 27.8154 35.4277 27.8271 35.5801C27.7803 35.5566 27.7158 35.5449 27.6338 35.5449C27.4932 35.5449 27.3525 35.5859 27.2119 35.668C27.083 35.7617 26.9717 35.8555 26.8779 35.9492C26.7373 36.0195 26.5732 36.0898 26.3857 36.1602C26.21 36.2305 26.0811 36.3477 25.999 36.5117C25.9521 36.4648 25.8818 36.4414 25.7881 36.4414C25.6826 36.4414 25.5713 36.4707 25.4541 36.5293C25.3369 36.5996 25.249 36.6758 25.1904 36.7578C25.0264 36.7578 24.8682 36.7812 24.7158 36.8281C24.5752 36.8867 24.4287 36.9395 24.2764 36.9863C24.124 37.0449 23.9717 37.0977 23.8193 37.1445C23.6787 37.1914 23.5264 37.2148 23.3623 37.2148C23.2686 37.2148 23.1982 37.1914 23.1514 37.1445C23.1045 37.0977 23.0459 37.0566 22.9756 37.0215C22.917 37.0684 22.8115 37.1211 22.6592 37.1797C22.5186 37.2383 22.4131 37.2676 22.3428 37.2676C22.2139 37.2676 22.085 37.25 21.9561 37.2148C21.8389 37.1797 21.7158 37.1387 21.5869 37.0918L21.2178 36.9688C21.1006 36.9336 20.9717 36.9102 20.8311 36.8984C20.7256 36.8047 20.5967 36.7051 20.4443 36.5996C20.3037 36.5059 20.1631 36.4766 20.0225 36.5117C19.9639 36.3359 19.876 36.1836 19.7588 36.0547C19.6416 35.9258 19.5068 35.8086 19.3545 35.7031C19.3193 35.6797 19.2783 35.6562 19.2314 35.6328C19.1963 35.6211 19.167 35.6035 19.1436 35.5801C19.085 35.5449 19.0322 35.4746 18.9854 35.3691C18.9385 35.2637 18.8857 35.2109 18.8271 35.2109C18.8154 35.2109 18.7979 35.2168 18.7744 35.2285C18.7627 35.2402 18.751 35.2461 18.7393 35.2461C18.7158 35.1406 18.6807 35.041 18.6338 34.9473C18.5869 34.8418 18.5049 34.7773 18.3877 34.7539C18.2939 34.4492 18.2295 34.1445 18.1943 33.8398C18.1592 33.5352 18.1123 33.2305 18.0537 32.9258C18.0303 32.832 18.001 32.7207 17.9658 32.5918C17.9424 32.4512 17.9307 32.3281 17.9307 32.2227C17.9307 32.0469 17.9541 31.8359 18.001 31.5898C18.0596 31.3438 18.1064 31.127 18.1416 30.9395C18.2822 30.2598 18.4697 29.6035 18.7041 28.9707C18.9385 28.3262 19.1904 27.6875 19.46 27.0547C19.7412 26.4219 20.0283 25.7949 20.3213 25.1738C20.6143 24.5527 20.8896 23.9199 21.1475 23.2754C21.1943 23.2754 21.2236 23.2637 21.2354 23.2402L21.2881 23.1523C21.3115 23.1172 21.3291 23.0879 21.3408 23.0645C21.3643 23.041 21.4053 23.0293 21.4639 23.0293V22.9766C21.4521 22.9062 21.4639 22.8477 21.499 22.8008C21.5459 22.7539 21.5576 22.6777 21.5342 22.5723C21.7217 22.3613 21.8799 22.127 22.0088 21.8691C22.1377 21.5996 22.2666 21.3359 22.3955 21.0781C22.5361 20.8203 22.6826 20.5684 22.835 20.3223C22.9873 20.0762 23.1807 19.8652 23.415 19.6895V19.5664C23.4033 19.5078 23.4033 19.4492 23.415 19.3906C23.4385 19.3203 23.4795 19.2734 23.5381 19.25C23.749 19.0391 23.9248 18.8281 24.0654 18.6172C24.2061 18.4062 24.3467 18.2012 24.4873 18.002C24.6396 17.791 24.8037 17.5977 24.9795 17.4219C25.167 17.2344 25.4014 17.0645 25.6826 16.9121C25.8115 16.8535 25.9053 16.7656 25.9639 16.6484C26.0225 16.5312 26.0986 16.4492 26.1924 16.4023C26.2393 16.3789 26.2861 16.3672 26.333 16.3672C26.3916 16.3555 26.4443 16.3379 26.4912 16.3145C26.6904 16.2559 26.8896 16.1855 27.0889 16.1035C27.2881 16.0098 27.499 15.9629 27.7217 15.9629C28.0029 15.9629 28.2139 16.0449 28.3545 16.209C28.5068 16.3613 28.624 16.5488 28.7061 16.7715C28.7998 16.9941 28.876 17.2285 28.9346 17.4746C28.9932 17.7207 29.0869 17.9316 29.2158 18.1074C29.5674 18.1309 29.9248 18.1719 30.2881 18.2305C30.6514 18.2773 30.9678 18.4238 31.2373 18.6699C31.2607 18.6816 31.29 18.6875 31.3252 18.6875C31.3838 18.6875 31.4131 18.6641 31.4131 18.6172C31.4131 18.5703 31.4424 18.5469 31.501 18.5469H31.5537C31.9053 18.7578 32.2393 18.9922 32.5557 19.25C32.8838 19.4961 33.2061 19.7539 33.5225 20.0234C33.5811 20.0703 33.6396 20.1172 33.6982 20.1641C33.7686 20.1992 33.8271 20.2461 33.874 20.3047C33.9326 20.375 33.9854 20.457 34.0322 20.5508C34.0908 20.6445 34.1436 20.7266 34.1904 20.7969C34.7764 21.8164 35.1689 22.9121 35.3682 24.084C35.3916 24.2129 35.4092 24.3359 35.4209 24.4531C35.4443 24.5703 35.4561 24.6816 35.4561 24.7871C35.4561 24.8926 35.4795 24.9629 35.5264 24.998C35.5732 25.0215 35.5967 25.0801 35.5967 25.1738ZM34.2432 26.0703C34.2432 25.6016 34.1846 25.1504 34.0674 24.7168C34.126 24.6934 34.1611 24.6582 34.1729 24.6113C34.1963 24.5527 34.208 24.4941 34.208 24.4355V24.3477L33.9971 23.9609C33.9854 23.7969 33.9502 23.6445 33.8916 23.5039C33.8447 23.3633 33.7861 23.2227 33.7158 23.082C33.6455 22.9414 33.5752 22.8008 33.5049 22.6602C33.4463 22.5195 33.4053 22.3672 33.3818 22.2031C33.1943 22.0625 33.0244 21.9043 32.8721 21.7285C32.7314 21.541 32.6025 21.3477 32.4854 21.1484C32.4033 21.1133 32.3271 21.0898 32.2568 21.0781C32.1865 21.0664 32.1631 21.002 32.1865 20.8848C31.9756 20.8262 31.7822 20.7441 31.6064 20.6387C31.4424 20.5215 31.2783 20.3926 31.1143 20.252C30.8447 20.1934 30.5752 20.123 30.3057 20.041C30.0479 19.9473 29.7842 19.9004 29.5146 19.9004C29.3271 19.9004 29.1455 19.9355 28.9697 20.0059C29.0283 20.0996 29.0576 20.2051 29.0576 20.3223C29.0576 20.4277 29.0693 20.5332 29.0928 20.6387C29.4678 20.7324 29.6963 20.9609 29.7783 21.3242C29.7197 21.3594 29.667 21.4062 29.6201 21.4648C29.5732 21.5117 29.5264 21.5586 29.4795 21.6055C29.4443 21.6406 29.3975 21.6758 29.3389 21.7109C29.2803 21.7461 29.21 21.7637 29.1279 21.7637C28.9639 21.7637 28.835 21.7344 28.7412 21.6758C28.6592 21.6172 28.5244 21.6055 28.3369 21.6406C28.1377 21.4648 27.9443 21.2832 27.7568 21.0957C27.5693 20.8965 27.3584 20.7207 27.124 20.5684C27.0889 20.4512 27.0303 20.3457 26.9482 20.252C26.8779 20.1582 26.8018 20.0703 26.7197 19.9883C26.6494 19.8945 26.5791 19.8008 26.5088 19.707C26.4502 19.6016 26.4209 19.4844 26.4209 19.3555C26.4209 19.2734 26.4268 19.2148 26.4385 19.1797C26.3682 19.1562 26.3154 19.1445 26.2803 19.1445C26.1865 19.1445 26.0986 19.1797 26.0166 19.25C25.9346 19.3086 25.8408 19.3496 25.7354 19.373C25.6416 19.6543 25.5068 19.9004 25.3311 20.1113C25.1553 20.3223 24.9736 20.5273 24.7861 20.7266C24.5986 20.9258 24.4229 21.1367 24.2588 21.3594C24.1064 21.5703 23.9951 21.834 23.9248 22.1504C23.5498 22.6191 23.2041 23.1523 22.8877 23.75C22.5713 24.3359 22.3311 24.9102 22.167 25.4727C21.8975 25.7773 21.6865 26.0996 21.5342 26.4395C21.3818 26.7793 21.2939 27.1543 21.2705 27.5645C21.2119 27.5996 21.165 27.6465 21.1299 27.7051L20.9541 28.0566C20.9307 28.1152 20.8896 28.1621 20.8311 28.1973V28.2852C20.8311 28.3789 20.8135 28.4668 20.7783 28.5488C20.7432 28.6191 20.7021 28.6895 20.6553 28.7598C20.6201 28.8301 20.585 28.9004 20.5498 28.9707C20.5146 29.0293 20.4971 29.0996 20.4971 29.1816C20.4971 29.2754 20.5205 29.3691 20.5674 29.4629C20.4385 29.4863 20.3506 29.5566 20.3037 29.6738C20.2686 29.7793 20.2158 29.873 20.1455 29.9551C20.0986 30.3301 20.0518 30.7109 20.0049 31.0977C19.958 31.4844 19.9346 31.8652 19.9346 32.2402C19.9346 32.6738 19.9814 33.1133 20.0752 33.5586C20.1807 33.6641 20.2744 33.7812 20.3564 33.9102C20.4385 34.0391 20.5205 34.1621 20.6025 34.2793C20.6963 34.3965 20.7959 34.502 20.9014 34.5957C21.0068 34.6777 21.1475 34.7305 21.3232 34.7539C21.3232 34.8359 21.3408 34.8945 21.376 34.9297C21.4111 34.9648 21.4404 35.0117 21.4639 35.0703C21.71 35.1523 21.9678 35.2168 22.2373 35.2637C22.5068 35.3223 22.7764 35.3516 23.0459 35.3516C23.2334 35.3516 23.4209 35.3281 23.6084 35.2812C23.8076 35.2344 23.9717 35.1406 24.1006 35C24.6982 34.9766 25.29 34.8359 25.876 34.5781C26.4736 34.3203 27.0186 34.0391 27.5107 33.7344H27.8799C28.0088 33.5586 28.167 33.418 28.3545 33.3125C28.542 33.1953 28.7354 33.0898 28.9346 32.9961C28.9697 32.9727 29.0166 32.9492 29.0752 32.9258C29.1338 32.9023 29.1807 32.8789 29.2158 32.8555C29.3447 32.7617 29.4736 32.6562 29.6025 32.5391C29.7432 32.4219 29.8838 32.3105 30.0244 32.2051C30.2588 32.0293 30.499 31.8594 30.7451 31.6953C30.9912 31.5312 31.2256 31.3555 31.4482 31.168C31.6826 30.9805 31.8994 30.7812 32.0986 30.5703C32.3096 30.3477 32.4854 30.1016 32.626 29.832C32.6963 29.832 32.749 29.8145 32.7842 29.7793C32.8311 29.7324 32.8662 29.6855 32.8896 29.6387C32.9248 29.5918 32.96 29.5508 32.9951 29.5156C33.042 29.4805 33.1064 29.4629 33.1885 29.4629C33.1885 29.3574 33.2061 29.2695 33.2412 29.1992C33.2881 29.1172 33.335 29.0469 33.3818 28.9883C33.4404 28.918 33.4932 28.8535 33.54 28.7949C33.5986 28.7363 33.6514 28.6602 33.6982 28.5664V28.0742C33.8857 27.7695 34.0205 27.4473 34.1025 27.1074C34.1963 26.7676 34.2432 26.4219 34.2432 26.0703Z" fill="#FF5E62"/>
<path d="M54.1064 19.0918C54.1064 19.502 54.0303 19.9004 53.8779 20.2871C53.7256 20.6621 53.6143 21.0488 53.5439 21.4473C53.2861 21.7871 53.0459 22.1387 52.8232 22.502C52.6006 22.8652 52.3721 23.2285 52.1377 23.5918C51.9033 23.9551 51.6572 24.3066 51.3994 24.6465C51.1416 24.9746 50.8486 25.2734 50.5205 25.543C50.5322 25.5547 50.5381 25.5781 50.5381 25.6133C50.5381 25.6836 50.5029 25.7422 50.4326 25.7891C50.374 25.8242 50.3564 25.8711 50.3799 25.9297C50.0869 26.2344 49.7998 26.5332 49.5186 26.8262C49.2373 27.1191 48.9795 27.4473 48.7451 27.8105C48.4873 27.9395 48.2764 28.1504 48.1123 28.4434C48.042 28.4434 47.9893 28.4609 47.9541 28.4961C47.9189 28.5195 47.8721 28.543 47.8135 28.5664C47.4385 29.0234 47.0459 29.457 46.6357 29.8672C46.2256 30.2773 45.7861 30.6523 45.3174 30.9922C45.1416 31.1211 44.9658 31.2383 44.79 31.3438C44.6143 31.4492 44.4443 31.5605 44.2803 31.6777C44.1748 31.748 44.0693 31.8301 43.9639 31.9238C43.8701 32.0176 43.7705 32.1055 43.665 32.1875C43.3252 32.4805 42.9912 32.7266 42.6631 32.9258C42.335 33.1133 41.9482 33.2422 41.5029 33.3125C41.4678 33.4414 41.4502 33.582 41.4502 33.7344V34.1562C41.4502 34.2969 41.4443 34.4434 41.4326 34.5957C41.4209 34.7363 41.3799 34.8711 41.3096 35V35.0527C41.3096 35.1699 41.3389 35.2812 41.3975 35.3867C41.4561 35.5039 41.4854 35.6211 41.4854 35.7383C41.4854 35.8203 41.4443 35.8906 41.3623 35.9492H41.8193C41.8193 36.1133 41.8662 36.2539 41.96 36.3711C42.0654 36.4883 42.1182 36.5762 42.1182 36.6348C42.1182 36.834 42.0947 37.0508 42.0479 37.2852C42.0127 37.5312 41.8955 37.6953 41.6963 37.7773V37.8828C41.6963 38 41.6846 38.1113 41.6611 38.2168C41.6377 38.334 41.585 38.4453 41.5029 38.5508C41.4326 38.5508 41.3623 38.5508 41.292 38.5508C41.2334 38.5625 41.1748 38.5684 41.1162 38.5684C40.624 38.5684 40.1846 38.4512 39.7979 38.2168C39.6689 37.9121 39.5811 37.5957 39.5342 37.2676C39.499 36.9512 39.4814 36.6289 39.4814 36.3008C39.4814 35.6562 39.5283 35.0176 39.6221 34.3848C39.7158 33.752 39.792 33.1191 39.8506 32.4863L40.1143 31.9766C40.1377 31.6484 40.1787 31.3203 40.2373 30.9922C40.2959 30.6523 40.3545 30.3184 40.4131 29.9902C40.4717 29.6621 40.5186 29.334 40.5537 29.0059C40.6006 28.6777 40.6182 28.3496 40.6064 28.0215C40.7002 27.8223 40.7646 27.6113 40.7998 27.3887C40.8467 27.166 40.8701 26.9492 40.8701 26.7383C40.8701 26.6211 40.8643 26.5039 40.8525 26.3867C40.8408 26.2695 40.8057 26.1582 40.7471 26.0527C40.8174 26.0059 40.8643 25.9473 40.8877 25.877C40.9111 25.8066 40.9463 25.7422 40.9932 25.6836C41.0283 25.2266 41.0576 24.7754 41.0811 24.3301C41.1045 23.873 41.1162 23.4219 41.1162 22.9766C41.1162 22.7305 41.1104 22.4902 41.0986 22.2559C41.0869 22.0098 41.0693 21.7637 41.0459 21.5176C41.0342 21.4238 41.0107 21.3125 40.9756 21.1836C40.9521 21.0547 40.9404 20.9551 40.9404 20.8848C40.9404 20.791 40.9463 20.6973 40.958 20.6035C40.9697 20.498 40.9756 20.3926 40.9756 20.2871C40.9756 20.1699 40.9639 20.0586 40.9404 19.9531C40.917 19.8359 40.876 19.7305 40.8174 19.6367C40.2549 19.8008 39.751 20.0234 39.3057 20.3047C38.8604 20.5742 38.4092 20.8789 37.9521 21.2188C37.7646 21.3477 37.5596 21.5 37.3369 21.6758C37.1143 21.8516 36.9033 21.9863 36.7041 22.0801C36.6689 22.1035 36.6279 22.1211 36.5811 22.1328C36.5225 22.1328 36.4756 22.1328 36.4404 22.1328C36.3115 22.1328 36.1943 22.127 36.0889 22.1152C35.9834 22.0918 35.8779 22.0801 35.7725 22.0801C35.6084 21.916 35.415 21.7871 35.1924 21.6934C35.1572 21.5527 35.1396 21.4004 35.1396 21.2363C35.1396 21.0723 35.1572 20.9141 35.1924 20.7617C35.2158 20.6094 35.2568 20.457 35.3154 20.3047C35.4561 20.2578 35.6084 20.2051 35.7725 20.1465C35.9248 20.0879 36.0771 20.0234 36.2295 19.9531C36.3701 19.8711 36.499 19.7832 36.6162 19.6895C36.7334 19.584 36.8271 19.4551 36.8975 19.3027C36.9678 19.3379 37.0322 19.3555 37.0908 19.3555C37.1494 19.3555 37.2021 19.3496 37.249 19.3379C37.2959 19.3262 37.3486 19.3145 37.4072 19.3027C37.6182 19.1738 37.8291 19.0391 38.04 18.8984C38.2627 18.7578 38.4912 18.6406 38.7256 18.5469C38.7959 18.5234 38.8369 18.4941 38.8486 18.459C38.8604 18.4238 38.8604 18.3711 38.8486 18.3008C39.1182 18.2188 39.3994 18.125 39.6924 18.0195C39.9854 17.9023 40.2314 17.7441 40.4307 17.5449H40.7471C40.9229 17.416 41.1104 17.3105 41.3096 17.2285C41.5088 17.1465 41.708 17.0703 41.9072 17C42.1182 16.918 42.3232 16.8359 42.5225 16.7539C42.7217 16.6602 42.9092 16.543 43.085 16.4023C43.1553 16.3789 43.2139 16.3672 43.2607 16.3672C43.3193 16.3672 43.3838 16.3789 43.4541 16.4023C43.5713 16.3438 43.6709 16.2734 43.7529 16.1914L44.0342 15.9102C44.2217 15.9102 44.3916 15.8926 44.5439 15.8574C44.6963 15.8223 44.8428 15.7754 44.9834 15.7168C45.124 15.6582 45.2588 15.5938 45.3877 15.5234C45.5283 15.4414 45.6807 15.3594 45.8447 15.2773C45.915 15.3008 45.9678 15.3301 46.0029 15.3652C46.0381 15.3887 46.0967 15.4004 46.1787 15.4004C46.2959 15.3184 46.4189 15.2598 46.5479 15.2246C46.6885 15.1777 46.8291 15.1426 46.9697 15.1191C47.1104 15.0957 47.2451 15.0664 47.374 15.0312C47.5146 14.9961 47.6377 14.9316 47.7432 14.8379C48.1182 14.8379 48.4932 14.832 48.8682 14.8203C49.2549 14.7969 49.6357 14.7852 50.0107 14.7852C50.5498 14.7852 51.0947 14.8262 51.6455 14.9082C52.208 14.9902 52.7119 15.1953 53.1572 15.5234C53.333 15.9453 53.585 16.3027 53.9131 16.5957C53.9365 16.7246 53.96 16.8477 53.9834 16.9648C54.0186 17.0703 54.0596 17.1758 54.1064 17.2812C54.0244 17.457 53.9834 17.6504 53.9834 17.8613C53.9834 18.0723 54.001 18.2832 54.0361 18.4941C54.083 18.6934 54.1064 18.8926 54.1064 19.0918ZM52.4717 18.6699C52.4131 18.5645 52.3721 18.4473 52.3486 18.3184C52.3369 18.1777 52.3369 18.043 52.3486 17.9141C52.1963 17.7969 52.0791 17.6445 51.9971 17.457C51.915 17.2695 51.7979 17.1289 51.6455 17.0352C51.54 16.9766 51.3877 16.9414 51.1885 16.9297C51.001 16.918 50.8428 16.8945 50.7139 16.8594C50.5615 16.8125 50.4561 16.7656 50.3975 16.7188C50.3506 16.6719 50.2451 16.6484 50.0811 16.6484C49.9404 16.6484 49.7998 16.666 49.6592 16.7012C49.5186 16.7246 49.3779 16.7363 49.2373 16.7363C49.1201 16.7363 49.0088 16.7129 48.9033 16.666C48.7979 16.6191 48.6865 16.5957 48.5693 16.5957C48.4404 16.5957 48.3174 16.6367 48.2002 16.7188C48.0947 16.8008 47.9658 16.8242 47.8135 16.7891C47.7432 16.8477 47.7021 16.8945 47.6904 16.9297C47.6904 16.9648 47.6846 16.9941 47.6729 17.0176C47.6611 17.0293 47.6318 17.0352 47.585 17.0352H47.3389C47.0928 17.0352 46.8408 17.0703 46.583 17.1406C46.3369 17.2109 46.1143 17.3281 45.915 17.4922C45.8799 17.4805 45.8447 17.4746 45.8096 17.4746C45.7861 17.4629 45.7568 17.457 45.7217 17.457C45.5225 17.457 45.3291 17.5156 45.1416 17.6328C44.9658 17.7383 44.7666 17.791 44.5439 17.791C44.4033 17.9316 44.2334 18.043 44.0342 18.125C43.835 18.207 43.6299 18.2891 43.4189 18.3711C43.2197 18.4414 43.0322 18.5293 42.8564 18.6348C42.6807 18.7285 42.5459 18.8691 42.4521 19.0566C42.4404 19.1504 42.4697 19.209 42.54 19.2324C42.6104 19.2559 42.6455 19.3145 42.6455 19.4082C42.6455 19.4902 42.6279 19.5898 42.5928 19.707C42.5693 19.8242 42.5576 19.9414 42.5576 20.0586C42.5576 20.3281 42.5869 20.5918 42.6455 20.8496C42.7041 21.1074 42.7627 21.3711 42.8213 21.6406C42.7627 21.6758 42.7217 21.7285 42.6982 21.7988C42.6748 21.8691 42.6338 21.9219 42.5752 21.957C42.7393 22.4492 42.8213 22.9531 42.8213 23.4688C42.8213 23.8789 42.7744 24.2832 42.6807 24.6816C42.5986 25.0684 42.54 25.4668 42.5049 25.877V25.8945C42.5049 25.9648 42.5283 26.0117 42.5752 26.0352C42.6221 26.0586 42.6455 26.0996 42.6455 26.1582C42.6455 26.1934 42.6396 26.2227 42.6279 26.2461C42.499 27.043 42.3701 27.8398 42.2412 28.6367C42.124 29.4336 42.0244 30.2363 41.9424 31.0449H42.083C42.3877 31.0449 42.6572 30.957 42.8916 30.7812C43.1377 30.5938 43.3428 30.3887 43.5068 30.166H43.7881C44.6318 29.4277 45.4404 28.666 46.2139 27.8809C46.999 27.0957 47.7432 26.252 48.4463 25.3496C48.54 25.3496 48.6045 25.3262 48.6396 25.2793C48.6748 25.2324 48.7334 25.1973 48.8154 25.1738C49.0615 24.834 49.3193 24.5 49.5889 24.1719C49.8584 23.832 50.1514 23.5098 50.4678 23.2051C50.4795 23.0879 50.5088 22.9824 50.5557 22.8887C50.6143 22.7949 50.6729 22.707 50.7314 22.625C50.79 22.543 50.8428 22.4551 50.8896 22.3613C50.9365 22.2676 50.96 22.1562 50.96 22.0273C51.0186 22.0039 51.083 21.9805 51.1533 21.957C51.2236 21.9219 51.2881 21.875 51.3467 21.8164C51.3701 21.6992 51.4111 21.5938 51.4697 21.5C51.5283 21.4062 51.5576 21.3008 51.5576 21.1836C51.5576 21.1367 51.5459 21.0781 51.5225 21.0078C51.71 20.9258 51.8564 20.791 51.9619 20.6035C52.0674 20.416 52.1494 20.2109 52.208 19.9883C52.2666 19.7539 52.3076 19.5195 52.3311 19.2852C52.3662 19.0508 52.4131 18.8457 52.4717 18.6699Z" fill="#FF5E62"/>
<path d="M72.2119 15.7871C72.2119 15.8926 72.2061 15.998 72.1943 16.1035C72.1943 16.209 72.1885 16.3086 72.1768 16.4023C72.1416 16.4609 72.0713 16.4844 71.9658 16.4727C71.8721 16.4609 71.7959 16.4551 71.7373 16.4551C71.6787 16.4551 71.626 16.4668 71.5791 16.4902C71.5439 16.502 71.5264 16.5371 71.5264 16.5957C71.5264 16.666 71.5322 16.7129 71.5439 16.7363C71.4502 16.7246 71.3506 16.7129 71.2451 16.7012C71.1396 16.6895 71.0459 16.6543 70.9639 16.5957C70.7998 16.6309 70.6416 16.6777 70.4893 16.7363C70.3486 16.7949 70.208 16.8594 70.0674 16.9297C69.9268 17 69.7803 17.0645 69.6279 17.123C69.4756 17.1816 69.3174 17.2168 69.1533 17.2285C69.0479 17.3457 68.9131 17.4336 68.749 17.4922C68.585 17.5508 68.415 17.6035 68.2393 17.6504C68.0635 17.6973 67.8994 17.7559 67.7471 17.8262C67.5947 17.8848 67.4717 17.9785 67.3779 18.1074C67.1201 18.1309 66.874 18.1953 66.6396 18.3008C66.4053 18.4062 66.1709 18.5176 65.9365 18.6348C65.7139 18.752 65.4854 18.8633 65.251 18.9688C65.0166 19.0742 64.7646 19.1445 64.4951 19.1797C64.4248 19.25 64.3369 19.3086 64.2314 19.3555C64.1377 19.4023 64.0381 19.4492 63.9326 19.4961C63.8271 19.5312 63.7275 19.5723 63.6338 19.6191C63.54 19.666 63.4639 19.7305 63.4053 19.8125H63.3701C63.3232 19.8125 63.2881 19.8008 63.2646 19.7773C63.2412 19.7539 63.2061 19.7422 63.1592 19.7422C63.124 19.7422 63.1006 19.748 63.0889 19.7598C62.8076 19.8887 62.5264 20.0234 62.2451 20.1641C61.9639 20.3047 61.6709 20.4395 61.3662 20.5684C60.7686 20.8145 60.165 21.0547 59.5557 21.2891C58.9463 21.5234 58.3604 21.8105 57.7979 22.1504C57.6689 22.6191 57.5635 23.0996 57.4814 23.5918C57.3994 24.0723 57.2529 24.5352 57.042 24.9805V25.8066C56.9248 26.0293 56.8486 26.2754 56.8135 26.5449C56.7783 26.8145 56.7607 27.0723 56.7607 27.3184C56.7607 27.4121 56.7607 27.5 56.7607 27.582C56.7725 27.6523 56.7783 27.7285 56.7783 27.8105C57.1182 27.7168 57.4463 27.6113 57.7627 27.4941C58.0908 27.377 58.4189 27.2715 58.7471 27.1777C58.9111 27.1191 59.0752 27.0781 59.2393 27.0547C59.415 27.0312 59.585 26.9902 59.749 26.9316C59.8779 26.8965 60.0127 26.8496 60.1533 26.791C60.2939 26.7207 60.4287 26.6562 60.5576 26.5977C60.9092 26.4453 61.2666 26.3105 61.6299 26.1934C62.0049 26.0762 62.3857 25.9883 62.7725 25.9297C62.8896 25.8359 63.0186 25.748 63.1592 25.666C63.2998 25.584 63.4404 25.543 63.5811 25.543C63.6865 25.543 63.7744 25.5605 63.8447 25.5957C64.0439 25.4785 64.2783 25.373 64.5479 25.2793C64.8174 25.1855 65.0693 25.1504 65.3037 25.1738C65.3623 25.0918 65.4326 25.0391 65.5146 25.0156C65.5967 24.9805 65.6846 24.9629 65.7783 24.9629C65.8252 24.9629 65.8662 24.9688 65.9014 24.9805C65.9482 24.9805 66.001 24.9805 66.0596 24.9805C66.1768 24.8984 66.3057 24.8398 66.4463 24.8047C66.5869 24.7695 66.7275 24.7402 66.8682 24.7168C67.0088 24.6934 67.1436 24.6641 67.2725 24.6289C67.4131 24.582 67.5361 24.5117 67.6416 24.418C67.8057 24.4297 67.9346 24.4766 68.0283 24.5586C68.1338 24.6406 68.2217 24.7402 68.292 24.8574C68.3623 24.9746 68.4209 25.0977 68.4678 25.2266C68.5146 25.3555 68.5732 25.4785 68.6436 25.5957C68.6201 25.6895 68.585 25.7656 68.5381 25.8242C68.4912 25.8711 68.4385 25.918 68.3799 25.9648C68.3213 26.0117 68.2686 26.0586 68.2217 26.1055C68.1748 26.1523 68.1455 26.2168 68.1338 26.2988C67.7236 26.2988 67.3252 26.3574 66.9385 26.4746C66.5635 26.5918 66.1885 26.7266 65.8135 26.8789C65.4502 27.0312 65.0752 27.1777 64.6885 27.3184C64.3135 27.4473 63.9268 27.5293 63.5283 27.5645C63.4697 27.623 63.3936 27.6699 63.2998 27.7051L63.0361 27.793C62.9541 27.8164 62.8779 27.8516 62.8076 27.8984C62.7373 27.9336 62.6846 27.9922 62.6494 28.0742C62.5791 28.0391 62.5029 28.0215 62.4209 28.0215C62.2217 28.0215 62.0283 28.0742 61.8408 28.1797C61.6533 28.2852 61.4424 28.3379 61.208 28.3379C61.1143 28.3379 61.0498 28.332 61.0146 28.3203C60.9561 28.4258 60.8682 28.502 60.751 28.5488C60.6455 28.5957 60.5283 28.6367 60.3994 28.6719C60.2822 28.6953 60.165 28.7305 60.0479 28.7773C59.9424 28.8242 59.8604 28.9062 59.8018 29.0234C59.7666 29.0117 59.7256 29.0059 59.6787 29.0059H59.5732C59.3857 29.0059 59.1689 29.041 58.9229 29.1113C58.6885 29.1699 58.5186 29.2871 58.4131 29.4629C58.3193 29.4395 58.2373 29.4277 58.167 29.4277C58.0029 29.4277 57.8564 29.4629 57.7275 29.5332C57.5986 29.5918 57.4697 29.6621 57.3408 29.7441L56.9541 29.9902C56.8252 30.0723 56.6846 30.1309 56.5322 30.166C56.2275 30.5996 56.0166 31.0977 55.8994 31.6602C55.7822 32.2227 55.6943 32.8086 55.6357 33.418C55.5889 34.0273 55.542 34.6309 55.4951 35.2285C55.4482 35.8379 55.3545 36.3945 55.2139 36.8984C55.2842 37.0859 55.3369 37.2852 55.3721 37.4961C55.4072 37.707 55.4365 37.918 55.46 38.1289C55.4834 38.3516 55.5068 38.5742 55.5303 38.7969C55.5537 39.0195 55.5947 39.2305 55.6533 39.4297C55.7119 39.6758 55.8232 39.8926 55.9873 40.0801C56.1631 40.2793 56.2861 40.502 56.3564 40.748C56.415 40.7598 56.4736 40.7656 56.5322 40.7656C56.6025 40.7773 56.6729 40.7832 56.7432 40.7832C57.165 40.7832 57.5342 40.7012 57.8506 40.5371C58.1787 40.373 58.4834 40.168 58.7646 39.9219C59.0459 39.6875 59.3154 39.4297 59.5732 39.1484C59.8428 38.8789 60.1299 38.6387 60.4346 38.4277H60.7686C60.8506 38.334 60.9209 38.2344 60.9795 38.1289C61.0381 38.0234 61.1025 37.9238 61.1729 37.8301C61.2432 37.7363 61.3252 37.6543 61.4189 37.584C61.5127 37.5254 61.6299 37.4844 61.7705 37.4609C61.8057 37.2852 61.8877 37.1504 62.0166 37.0566C62.1455 36.9629 62.2334 36.8223 62.2803 36.6348C62.3037 36.6465 62.333 36.6523 62.3682 36.6523C62.4619 36.6523 62.5322 36.6289 62.5791 36.582L62.8428 36.3359C62.9365 36.2422 63.0361 36.1484 63.1416 36.0547C63.2588 35.9727 63.3701 35.8906 63.4756 35.8086C63.8154 35.5625 64.1553 35.3164 64.4951 35.0703C64.835 34.8359 65.1455 34.5605 65.4268 34.2441C65.4385 34.2559 65.4561 34.2617 65.4795 34.2617C65.5732 34.2617 65.6377 34.2324 65.6729 34.1738C65.708 34.1152 65.79 34.0977 65.9189 34.1211C65.9893 34.0156 66.0537 33.9102 66.1123 33.8047C66.1709 33.6875 66.2178 33.5645 66.2529 33.4355L66.8154 33.5059C67.0029 33.5293 67.1904 33.541 67.3779 33.541C67.4365 33.541 67.4893 33.541 67.5361 33.541C67.5947 33.5293 67.6475 33.5117 67.6943 33.4883C67.835 33.7109 67.9111 33.9512 67.9229 34.209C67.9346 34.4551 67.9639 34.7012 68.0107 34.9473C67.9873 34.9473 67.9697 34.9473 67.958 34.9473C67.958 34.9355 67.9463 34.9297 67.9229 34.9297C67.8643 34.9297 67.8057 34.9531 67.7471 35C67.7002 35.0352 67.6475 35.082 67.5889 35.1406L67.4131 35.3164C67.3545 35.375 67.3018 35.4219 67.2549 35.457C67.126 35.5391 66.9912 35.6094 66.8506 35.668C66.71 35.7383 66.5752 35.8086 66.4463 35.8789C66.3174 35.9492 66.1943 36.0312 66.0771 36.125C65.96 36.2305 65.8662 36.3594 65.7959 36.5117C65.5615 36.6055 65.333 36.7051 65.1104 36.8105C64.8994 36.916 64.6943 37.0273 64.4951 37.1445C64.4365 37.2031 64.3838 37.2617 64.3369 37.3203C64.29 37.3789 64.2549 37.4434 64.2314 37.5137C63.915 37.6191 63.6514 37.7773 63.4404 37.9883C63.2412 38.1992 63.0361 38.4277 62.8252 38.6738L62.8076 38.6562C62.7256 38.6562 62.6729 38.6855 62.6494 38.7441C62.6377 38.8027 62.5732 38.8203 62.4561 38.7969C62.2334 39.043 61.999 39.2715 61.7529 39.4824C61.5068 39.6934 61.2549 39.9043 60.9971 40.1152C60.7393 40.3262 60.4814 40.5371 60.2236 40.748C59.9658 40.9707 59.7256 41.2051 59.5029 41.4512C59.3506 41.498 59.2041 41.5566 59.0635 41.627C58.9229 41.6973 58.8174 41.8027 58.7471 41.9434H58.6943C58.5654 41.9434 58.4717 41.9727 58.4131 42.0312C58.3662 42.0898 58.3076 42.166 58.2373 42.2598C57.9912 42.3184 57.7393 42.3828 57.4814 42.4531C57.2236 42.5234 56.96 42.5586 56.6904 42.5586C56.5029 42.5586 56.3213 42.5234 56.1455 42.4531C55.9814 42.3828 55.8174 42.2891 55.6533 42.1719C55.501 42.0664 55.3545 41.9492 55.2139 41.8203C55.085 41.6914 54.9619 41.5684 54.8447 41.4512C54.7744 41.2168 54.6807 40.9707 54.5635 40.7129C54.458 40.4668 54.4053 40.2266 54.4053 39.9922C54.4053 39.9336 54.4111 39.875 54.4229 39.8164C54.4463 39.7695 54.458 39.7227 54.458 39.6758C54.458 39.5938 54.4287 39.5586 54.3701 39.5703C54.3232 39.582 54.2881 39.5527 54.2646 39.4824C54.2412 39.3652 54.2236 39.2305 54.2119 39.0781C54.2119 38.9375 54.2002 38.8027 54.1768 38.6738C54.1416 38.4043 54.0947 38.1289 54.0361 37.8477C53.9893 37.5664 53.9365 37.291 53.8779 37.0215C53.9248 36.998 53.96 36.957 53.9834 36.8984C54.0186 36.8516 54.0537 36.8047 54.0889 36.7578C54.0537 36.6641 54.0186 36.5586 53.9834 36.4414C53.96 36.3359 53.9482 36.2246 53.9482 36.1074C53.9482 35.873 54.0361 35.6973 54.2119 35.5801C54.2119 35.498 54.1885 35.4336 54.1416 35.3867C54.1064 35.3516 54.0889 35.2871 54.0889 35.1934C54.0889 35.1699 54.0947 35.1055 54.1064 35C54.1299 34.8828 54.1533 34.7539 54.1768 34.6133C54.2119 34.4727 54.2412 34.3379 54.2646 34.209C54.2881 34.0801 54.3057 33.9922 54.3174 33.9453C54.3994 33.4062 54.4697 32.8789 54.5283 32.3633C54.5869 31.8359 54.6689 31.3086 54.7744 30.7812C54.6572 30.6875 54.5049 30.6172 54.3174 30.5703C54.1416 30.5117 54.0186 30.4355 53.9482 30.3418C53.8896 30.2598 53.8428 30.1543 53.8076 30.0254C53.7725 29.8965 53.7549 29.7852 53.7549 29.6914C53.7549 29.3516 53.8896 29.082 54.1592 28.8828C54.4287 28.6719 54.7158 28.5488 55.0205 28.5137C55.1729 28.1035 55.2842 27.6875 55.3545 27.2656C55.4365 26.832 55.501 26.3984 55.5479 25.9648L55.6885 24.6465C55.7354 24.2012 55.8057 23.7617 55.8994 23.3281H55.7939C55.5596 23.3281 55.3311 23.3633 55.1084 23.4336C54.8857 23.5039 54.6572 23.5391 54.4229 23.5391H54.3877C54.0479 23.2695 53.8779 22.9473 53.8779 22.5723C53.8779 22.3496 53.9248 22.127 54.0186 21.9043C54.2061 21.834 54.376 21.7402 54.5283 21.623C54.6807 21.5059 54.833 21.3887 54.9854 21.2715C55.1494 21.1426 55.3135 21.0312 55.4775 20.9375C55.6416 20.8438 55.8232 20.7852 56.0225 20.7617C56.0459 20.4219 56.1045 20.082 56.1982 19.7422C56.292 19.4023 56.3389 19.0625 56.3389 18.7227C56.3389 18.6523 56.333 18.582 56.3213 18.5117C56.3213 18.4414 56.3096 18.3711 56.2861 18.3008C56.3682 18.1953 56.4209 18.084 56.4443 17.9668C56.4795 17.8496 56.4971 17.7266 56.4971 17.5977C56.4971 17.457 56.4854 17.3223 56.4619 17.1934C56.4502 17.0527 56.4326 16.918 56.4092 16.7891C56.5146 16.7422 56.5967 16.6953 56.6553 16.6484C56.7139 16.5898 56.7666 16.5371 56.8135 16.4902C56.8721 16.4434 56.9424 16.4023 57.0244 16.3672C57.1064 16.332 57.2236 16.3145 57.376 16.3145C57.5986 16.3145 57.7861 16.3613 57.9385 16.4551C58.1025 16.5371 58.2432 16.6484 58.3604 16.7891C58.4775 16.9297 58.5771 17.0879 58.6592 17.2637C58.7529 17.4395 58.8408 17.6152 58.9229 17.791C58.8994 17.9199 58.8467 18.0137 58.7646 18.0723C58.6826 18.1309 58.6123 18.207 58.5537 18.3008C58.5771 18.4883 58.6006 18.6699 58.624 18.8457C58.6475 19.0098 58.6475 19.1855 58.624 19.373C58.7412 19.4316 58.8525 19.4609 58.958 19.4609C59.1338 19.4609 59.292 19.4141 59.4326 19.3203C59.585 19.2266 59.6904 19.0977 59.749 18.9336H59.7842C59.8193 18.9336 59.8486 18.9453 59.8721 18.9688C59.9072 18.9922 59.9482 19.0039 59.9951 19.0039H60.0654C60.1943 18.8867 60.335 18.7988 60.4873 18.7402C60.6396 18.6699 60.7979 18.6055 60.9619 18.5469C61.126 18.4883 61.2842 18.4297 61.4365 18.3711C61.6006 18.3008 61.7529 18.2129 61.8936 18.1074C61.9639 18.1426 62.04 18.1602 62.1221 18.1602C62.2393 18.1602 62.3506 18.1367 62.4561 18.0898C62.5732 18.043 62.6846 17.9961 62.79 17.9492C62.8955 17.8906 63.0068 17.8379 63.124 17.791C63.2529 17.7441 63.3877 17.7207 63.5283 17.7207C63.5518 17.7207 63.5811 17.7266 63.6162 17.7383C63.6514 17.7383 63.6807 17.7383 63.7041 17.7383C63.7861 17.7383 63.833 17.709 63.8447 17.6504C63.8564 17.5918 63.8564 17.5391 63.8447 17.4922C64.2197 17.3984 64.542 17.293 64.8115 17.1758C65.0928 17.0469 65.4033 16.9004 65.7432 16.7363C65.7432 16.7246 65.7549 16.7188 65.7783 16.7188C65.8135 16.7188 65.8369 16.7363 65.8486 16.7715C65.8604 16.8066 65.8662 16.8359 65.8662 16.8594C65.9365 16.8242 65.9717 16.7656 65.9717 16.6836C65.9834 16.6016 66.0127 16.5312 66.0596 16.4727C66.1064 16.4844 66.1709 16.4902 66.2529 16.4902C66.3584 16.4902 66.4639 16.4668 66.5693 16.4199C66.6865 16.373 66.7979 16.3203 66.9033 16.2617C67.0088 16.2031 67.1143 16.1504 67.2197 16.1035C67.3252 16.0566 67.4307 16.0332 67.5361 16.0332C67.6299 16.0332 67.7061 16.0566 67.7646 16.1035C67.835 16.0684 67.9053 16.0215 67.9756 15.9629C68.0459 15.8926 68.1221 15.8574 68.2041 15.8574C68.2275 15.8574 68.2451 15.8633 68.2568 15.875C68.2803 15.8867 68.3037 15.8984 68.3271 15.9102C68.3857 15.8516 68.4385 15.8047 68.4854 15.7695C68.5439 15.7344 68.5732 15.6758 68.5732 15.5938C69.0068 15.5469 69.4053 15.4531 69.7686 15.3125C70.1436 15.1602 70.501 14.9609 70.8408 14.7148C70.9697 14.7383 71.0928 14.7676 71.21 14.8027C71.3389 14.8262 71.4678 14.8379 71.5967 14.8379C71.667 14.9668 71.7314 15.0957 71.79 15.2246C71.8486 15.3535 71.9775 15.4121 72.1768 15.4004C72.1885 15.459 72.1943 15.5234 72.1943 15.5938C72.2061 15.6641 72.2119 15.7285 72.2119 15.7871Z" fill="#FF5E62"/>
<path d="M29.3037 71.6816C29.3037 71.8691 29.2686 72.0625 29.1982 72.2617C29.1396 72.4609 29.0635 72.6426 28.9697 72.8066C28.8174 72.8301 28.6768 72.8828 28.5479 72.9648C28.4307 73.0469 28.3369 73.0996 28.2666 73.123C28.1143 73.1465 27.9326 73.1582 27.7217 73.1582C27.5225 73.1465 27.3408 73.1465 27.1768 73.1582C26.8604 73.1816 26.5439 73.2168 26.2275 73.2637C25.9229 73.3105 25.6182 73.3691 25.3135 73.4395C25.29 73.4395 25.2666 73.4453 25.2432 73.457C25.2197 73.457 25.208 73.4688 25.208 73.4922C25.208 73.5156 25.2139 73.5391 25.2256 73.5625C25.2373 73.5859 25.2432 73.6094 25.2432 73.6328C25.2432 73.668 25.208 73.6855 25.1377 73.6855C25.0088 73.6855 24.9209 73.6445 24.874 73.5625C24.499 73.6562 24.124 73.7559 23.749 73.8613C23.374 73.9551 22.999 74.0488 22.624 74.1426C22.4365 74.1777 22.249 74.2129 22.0615 74.248C21.8857 74.2832 21.7041 74.3301 21.5166 74.3887C21.4229 74.4121 21.3291 74.4531 21.2354 74.5117L20.9541 74.6875C20.8955 74.6758 20.8428 74.6699 20.7959 74.6699C20.749 74.6582 20.7021 74.6523 20.6553 74.6523C20.4561 74.6523 20.2451 74.6934 20.0225 74.7754C19.7998 74.8457 19.6064 74.9453 19.4424 75.0742H19.3193C19.2021 75.0742 19.1201 75.0566 19.0732 75.0215C18.9678 75.0098 18.9033 75.0449 18.8799 75.127C18.8564 75.1973 18.8154 75.2617 18.7568 75.3203C18.3584 75.3555 17.9658 75.4258 17.5791 75.5312C17.1924 75.6367 16.8115 75.7539 16.4365 75.8828C16.0615 76 15.6807 76.123 15.2939 76.252C14.9189 76.3691 14.5381 76.4629 14.1514 76.5332C14.1045 76.7676 14.0811 77.0371 14.0811 77.3418C14.0811 77.5762 14.0986 77.8457 14.1338 78.1504C14.1807 78.4551 14.2744 78.7129 14.415 78.9238V78.959C14.415 79.0176 14.3916 79.0586 14.3447 79.082C14.2979 79.1055 14.2744 79.1465 14.2744 79.2051C14.2744 79.5098 14.3037 79.7969 14.3623 80.0664C14.4326 80.3359 14.5029 80.5996 14.5732 80.8574C14.6436 81.1152 14.708 81.373 14.7666 81.6309C14.8369 81.8887 14.8721 82.1523 14.8721 82.4219C14.8721 82.4922 14.8662 82.5566 14.8545 82.6152C14.8545 82.6855 14.8486 82.7559 14.8369 82.8262C14.8721 82.9316 14.9307 83.0195 15.0127 83.0898C15.0947 83.1602 15.165 83.2422 15.2236 83.3359C15.2354 83.3945 15.2412 83.4473 15.2412 83.4941V83.6699C15.2412 83.8691 15.2178 84.0449 15.1709 84.1973C15.124 84.3496 15.0654 84.4902 14.9951 84.6191C14.9248 84.7598 14.8486 84.8945 14.7666 85.0234C14.6846 85.1641 14.6084 85.3164 14.5381 85.4805C14.4209 85.5039 14.3271 85.5156 14.2568 85.5156C14.0811 85.5156 13.9346 85.4688 13.8174 85.375C13.7119 85.2812 13.6182 85.1641 13.5361 85.0234C13.4541 84.8945 13.3721 84.7598 13.29 84.6191C13.2197 84.4785 13.1318 84.3613 13.0264 84.2676C13.0381 84.209 13.0439 84.1562 13.0439 84.1094C13.0557 84.0625 13.0615 84.0098 13.0615 83.9512C13.0615 83.7168 13.0205 83.4883 12.9385 83.2656C12.8682 83.043 12.7861 82.832 12.6924 82.6328C12.6807 82.2344 12.6396 81.8418 12.5693 81.4551C12.499 81.0684 12.3994 80.6875 12.2705 80.3125C12.2939 80.1719 12.3115 80.0371 12.3232 79.9082C12.335 79.7676 12.3408 79.6328 12.3408 79.5039C12.3408 79.1641 12.3232 78.8242 12.2881 78.4844C12.2529 78.1445 12.2471 77.8047 12.2705 77.4648C12.2354 77.4062 12.2002 77.3594 12.165 77.3242C12.1299 77.2773 12.1006 77.2246 12.0771 77.166H12.0068C11.8311 77.166 11.6611 77.1836 11.4971 77.2188C11.333 77.2422 11.1689 77.2539 11.0049 77.2539C10.9463 77.2539 10.8936 77.2539 10.8467 77.2539C10.7998 77.2422 10.7471 77.2305 10.6885 77.2188C10.5596 77.0898 10.46 76.9434 10.3896 76.7793C10.3193 76.6152 10.2842 76.4453 10.2842 76.2695C10.2842 76.0117 10.3545 75.7773 10.4951 75.5664C10.7881 75.4961 11.0752 75.4141 11.3564 75.3203C11.6494 75.2148 11.9307 75.0918 12.2002 74.9512C12.2354 74.7754 12.2529 74.5996 12.2529 74.4238C12.2646 74.248 12.3291 74.084 12.4463 73.9316C12.4111 73.8379 12.3525 73.7559 12.2705 73.6855C12.2002 73.6035 12.165 73.5098 12.165 73.4043C12.165 73.3457 12.1768 73.2695 12.2002 73.1758C12.3174 73.0469 12.3994 72.8828 12.4463 72.6836C12.4932 72.4844 12.5342 72.2734 12.5693 72.0508C12.6045 71.8281 12.6396 71.6055 12.6748 71.3828C12.7217 71.1602 12.7979 70.9609 12.9033 70.7852C12.8799 70.6914 12.8623 70.5918 12.8506 70.4863C12.8389 70.3691 12.833 70.2637 12.833 70.1699C12.833 70.0293 12.8389 69.8887 12.8506 69.748C12.874 69.5957 12.9092 69.4551 12.9561 69.3262C12.8271 69.1738 12.7217 68.998 12.6396 68.7988C12.5576 68.5879 12.5166 68.3828 12.5166 68.1836C12.5166 67.7969 12.7041 67.5508 13.0791 67.4453C13.0674 67.3984 13.0557 67.3574 13.0439 67.3223C13.0439 67.2871 13.0439 67.252 13.0439 67.2168C13.0439 67.1113 13.0732 67.0117 13.1318 66.918C13.1904 66.8242 13.2373 66.7305 13.2725 66.6367C13.2139 66.4844 13.1846 66.3555 13.1846 66.25C13.1846 66.1562 13.2021 66.0742 13.2373 66.0039C13.2725 65.9219 13.3018 65.834 13.3252 65.7402C13.3604 65.623 13.3838 65.5176 13.3955 65.4238C13.4189 65.3301 13.4541 65.248 13.501 65.1777C13.5479 65.1074 13.6064 65.0547 13.6768 65.0195C13.7588 64.9844 13.8818 64.9668 14.0459 64.9668C14.3037 64.9668 14.5498 65.0488 14.7842 65.2129C15.0303 65.3652 15.2178 65.541 15.3467 65.7402C15.4756 65.7285 15.5869 65.7051 15.6807 65.6699C15.7861 65.623 15.8799 65.582 15.9619 65.5469C16.0557 65.5117 16.1494 65.4824 16.2432 65.459C16.3486 65.4238 16.4717 65.4121 16.6123 65.4238C16.6475 65.3418 16.7061 65.2891 16.7881 65.2656C16.8818 65.2305 16.9756 65.207 17.0693 65.1953C17.1631 65.1719 17.251 65.1426 17.333 65.1074C17.415 65.0723 17.4678 65.0078 17.4912 64.9141C17.5381 64.9492 17.5908 64.9668 17.6494 64.9668C17.708 64.9668 17.7666 64.9609 17.8252 64.9492C17.8838 64.9258 17.9482 64.9141 18.0186 64.9141C18.0889 64.9141 18.1475 64.9375 18.1943 64.9844C18.499 64.8203 18.8213 64.7031 19.1611 64.6328C19.5127 64.5508 19.8584 64.5039 20.1982 64.4922C21.0068 64.0469 21.8564 63.7422 22.7471 63.5781C23.6494 63.4141 24.5518 63.332 25.4541 63.332C25.583 63.332 25.7061 63.332 25.8232 63.332C25.9521 63.3203 26.0752 63.3262 26.1924 63.3496C26.3213 63.373 26.4619 63.4141 26.6143 63.4727C26.7783 63.5312 26.9365 63.6016 27.0889 63.6836C27.2529 63.7656 27.4053 63.8594 27.5459 63.9648C27.6865 64.0586 27.8037 64.1465 27.8975 64.2285C27.9912 64.4395 28.0381 64.6445 28.0381 64.8438C28.0381 64.9375 28.0322 65.0312 28.0205 65.125C28.0088 65.207 28.0029 65.2949 28.0029 65.3887C28.0029 65.5293 28.0322 65.6875 28.0908 65.8633C28.0557 65.8516 27.9971 65.8457 27.915 65.8457C27.8096 65.8457 27.7217 65.8691 27.6514 65.916C27.5811 65.9629 27.5166 66.0156 27.458 66.0742C27.3994 66.1328 27.3408 66.1855 27.2822 66.2324C27.2354 66.2793 27.1885 66.3027 27.1416 66.3027C27.0479 66.3027 26.9658 66.2852 26.8955 66.25C26.8369 66.2148 26.7725 66.1797 26.7021 66.1445C26.6436 66.0977 26.5791 66.0625 26.5088 66.0391C26.4385 66.0039 26.3564 65.9922 26.2627 66.0039V65.9336C26.2627 65.8047 26.2217 65.7227 26.1396 65.6875C26.0576 65.6406 25.9932 65.5762 25.9463 65.4941C25.7705 65.4824 25.5947 65.459 25.4189 65.4238C25.2549 65.3887 25.085 65.3711 24.9092 65.3711C24.6748 65.3711 24.4932 65.4531 24.3643 65.6172C24.3057 65.5938 24.2529 65.5645 24.2061 65.5293C24.1709 65.4941 24.1182 65.4824 24.0479 65.4941H23.9951C23.3623 65.4941 22.7412 65.5645 22.1318 65.7051C21.5225 65.834 20.9189 65.998 20.3213 66.1973C19.7236 66.3848 19.126 66.5898 18.5283 66.8125C17.9307 67.0352 17.333 67.2285 16.7354 67.3926C16.5947 67.5801 16.4482 67.7207 16.2959 67.8145C16.1436 67.8965 15.9912 67.9668 15.8389 68.0254C15.6982 68.084 15.5576 68.1426 15.417 68.2012C15.2764 68.2598 15.1533 68.3535 15.0479 68.4824C14.9541 68.6113 14.8779 68.793 14.8193 69.0273C14.7725 69.25 14.7607 69.5605 14.7842 69.959C14.7256 70.0293 14.6904 70.1055 14.6787 70.1875C14.667 70.2695 14.6553 70.3516 14.6436 70.4336C14.6318 70.5039 14.6143 70.5742 14.5908 70.6445C14.5674 70.7148 14.5264 70.7793 14.4678 70.8379C14.4912 70.9551 14.5088 71.0723 14.5205 71.1895C14.5322 71.3066 14.5381 71.4238 14.5381 71.541C14.5381 72.0332 14.4561 72.5137 14.292 72.9824C14.3506 73.0762 14.3799 73.1816 14.3799 73.2988C14.3799 73.4277 14.3623 73.5449 14.3271 73.6504C14.292 73.7559 14.2744 73.873 14.2744 74.002C14.2744 74.1309 14.2979 74.2363 14.3447 74.3184C14.415 74.3184 14.4561 74.3418 14.4678 74.3887H14.5732C14.7842 74.3887 14.9658 74.3359 15.1182 74.2305C15.2705 74.125 15.4346 74.0723 15.6104 74.0723C15.6455 74.0723 15.6865 74.084 15.7334 74.1074C15.7803 74.1309 15.8213 74.1426 15.8564 74.1426C15.9385 74.1426 15.9736 74.1133 15.9619 74.0547C15.9502 73.9961 15.9795 73.9551 16.0498 73.9316L16.6826 73.8262C17.0811 73.7559 17.4561 73.6738 17.8076 73.5801C18.1709 73.4746 18.5283 73.3223 18.8799 73.123C18.9619 73.1582 19.0557 73.1758 19.1611 73.1758C19.2549 73.1758 19.3545 73.1641 19.46 73.1406C19.5654 73.1055 19.665 73.0879 19.7588 73.0879C19.8408 73.0879 19.9053 73.0996 19.9521 73.123C20.0225 73.0762 20.1104 73.041 20.2158 73.0176C20.3213 72.9824 20.3799 72.9121 20.3916 72.8066H20.4268C20.4736 72.8066 20.5088 72.8184 20.5322 72.8418C20.5557 72.8652 20.5908 72.877 20.6377 72.877H20.708C20.9541 72.7598 21.1768 72.6719 21.376 72.6133C21.7041 72.5312 22.0557 72.4609 22.4307 72.4023C22.8057 72.332 23.1396 72.2148 23.4326 72.0508C23.7725 72.0508 24.1006 71.998 24.417 71.8926C24.7451 71.7754 25.0732 71.7168 25.4014 71.7168C25.5537 71.7168 25.6943 71.7402 25.8232 71.7871C25.9404 71.7051 26.0752 71.6465 26.2275 71.6113C26.3916 71.5762 26.5264 71.5117 26.6318 71.418C26.7021 71.4297 26.7725 71.4414 26.8428 71.4531C26.9248 71.4531 27.0068 71.4531 27.0889 71.4531C27.4404 71.4531 27.7744 71.4062 28.0908 71.3125C28.4189 71.207 28.7529 71.1309 29.0928 71.084C29.1748 71.1777 29.2275 71.2773 29.251 71.3828C29.2861 71.4766 29.3037 71.5762 29.3037 71.6816Z" fill="#FF5E62"/>
<path d="M44.4385 72.1738C44.4385 72.8418 44.3916 73.4922 44.2979 74.125C44.2158 74.7461 44.0928 75.3789 43.9287 76.0234C43.7764 76.1406 43.6826 76.2871 43.6475 76.4629C43.6123 76.6387 43.5537 76.8027 43.4717 76.9551C43.4014 77.084 43.3076 77.2246 43.1904 77.377C43.0732 77.5176 42.9443 77.6699 42.8037 77.834C42.6631 77.9863 42.5225 78.1445 42.3818 78.3086C42.2412 78.4727 42.124 78.6367 42.0303 78.8008C41.6787 78.918 41.4268 79.1699 41.2744 79.5566C41.0869 79.627 40.8936 79.709 40.6943 79.8027C40.4951 79.8848 40.3545 80.0312 40.2725 80.2422C39.8389 80.4648 39.4287 80.7227 39.042 81.0156C38.667 81.2969 38.2568 81.543 37.8115 81.7539C37.7529 81.8125 37.6826 81.8594 37.6006 81.8945C37.5303 81.918 37.4541 81.9473 37.3721 81.9824C37.3018 82.0176 37.2314 82.0586 37.1611 82.1055C37.1025 82.1641 37.0674 82.2344 37.0557 82.3164C37.0088 82.3164 36.9736 82.3047 36.9502 82.2812C36.9385 82.2695 36.9033 82.2578 36.8447 82.2461C36.7158 82.3164 36.6572 82.4277 36.6689 82.5801C36.6221 82.5566 36.5576 82.5449 36.4756 82.5449C36.335 82.5449 36.1943 82.5859 36.0537 82.668C35.9248 82.7617 35.8135 82.8555 35.7197 82.9492C35.5791 83.0195 35.415 83.0898 35.2275 83.1602C35.0518 83.2305 34.9229 83.3477 34.8408 83.5117C34.7939 83.4648 34.7236 83.4414 34.6299 83.4414C34.5244 83.4414 34.4131 83.4707 34.2959 83.5293C34.1787 83.5996 34.0908 83.6758 34.0322 83.7578C33.8682 83.7578 33.71 83.7812 33.5576 83.8281C33.417 83.8867 33.2705 83.9395 33.1182 83.9863C32.9658 84.0449 32.8135 84.0977 32.6611 84.1445C32.5205 84.1914 32.3682 84.2148 32.2041 84.2148C32.1104 84.2148 32.04 84.1914 31.9932 84.1445C31.9463 84.0977 31.8877 84.0566 31.8174 84.0215C31.7588 84.0684 31.6533 84.1211 31.501 84.1797C31.3604 84.2383 31.2549 84.2676 31.1846 84.2676C31.0557 84.2676 30.9268 84.25 30.7979 84.2148C30.6807 84.1797 30.5576 84.1387 30.4287 84.0918L30.0596 83.9688C29.9424 83.9336 29.8135 83.9102 29.6729 83.8984C29.5674 83.8047 29.4385 83.7051 29.2861 83.5996C29.1455 83.5059 29.0049 83.4766 28.8643 83.5117C28.8057 83.3359 28.7178 83.1836 28.6006 83.0547C28.4834 82.9258 28.3486 82.8086 28.1963 82.7031C28.1611 82.6797 28.1201 82.6562 28.0732 82.6328C28.0381 82.6211 28.0088 82.6035 27.9854 82.5801C27.9268 82.5449 27.874 82.4746 27.8271 82.3691C27.7803 82.2637 27.7275 82.2109 27.6689 82.2109C27.6572 82.2109 27.6396 82.2168 27.6162 82.2285C27.6045 82.2402 27.5928 82.2461 27.5811 82.2461C27.5576 82.1406 27.5225 82.041 27.4756 81.9473C27.4287 81.8418 27.3467 81.7773 27.2295 81.7539C27.1357 81.4492 27.0713 81.1445 27.0361 80.8398C27.001 80.5352 26.9541 80.2305 26.8955 79.9258C26.8721 79.832 26.8428 79.7207 26.8076 79.5918C26.7842 79.4512 26.7725 79.3281 26.7725 79.2227C26.7725 79.0469 26.7959 78.8359 26.8428 78.5898C26.9014 78.3438 26.9482 78.127 26.9834 77.9395C27.124 77.2598 27.3115 76.6035 27.5459 75.9707C27.7803 75.3262 28.0322 74.6875 28.3018 74.0547C28.583 73.4219 28.8701 72.7949 29.1631 72.1738C29.4561 71.5527 29.7314 70.9199 29.9893 70.2754C30.0361 70.2754 30.0654 70.2637 30.0771 70.2402L30.1299 70.1523C30.1533 70.1172 30.1709 70.0879 30.1826 70.0645C30.2061 70.041 30.2471 70.0293 30.3057 70.0293V69.9766C30.2939 69.9062 30.3057 69.8477 30.3408 69.8008C30.3877 69.7539 30.3994 69.6777 30.376 69.5723C30.5635 69.3613 30.7217 69.127 30.8506 68.8691C30.9795 68.5996 31.1084 68.3359 31.2373 68.0781C31.3779 67.8203 31.5244 67.5684 31.6768 67.3223C31.8291 67.0762 32.0225 66.8652 32.2568 66.6895V66.5664C32.2451 66.5078 32.2451 66.4492 32.2568 66.3906C32.2803 66.3203 32.3213 66.2734 32.3799 66.25C32.5908 66.0391 32.7666 65.8281 32.9072 65.6172C33.0479 65.4062 33.1885 65.2012 33.3291 65.002C33.4814 64.791 33.6455 64.5977 33.8213 64.4219C34.0088 64.2344 34.2432 64.0645 34.5244 63.9121C34.6533 63.8535 34.7471 63.7656 34.8057 63.6484C34.8643 63.5312 34.9404 63.4492 35.0342 63.4023C35.0811 63.3789 35.1279 63.3672 35.1748 63.3672C35.2334 63.3555 35.2861 63.3379 35.333 63.3145C35.5322 63.2559 35.7314 63.1855 35.9307 63.1035C36.1299 63.0098 36.3408 62.9629 36.5635 62.9629C36.8447 62.9629 37.0557 63.0449 37.1963 63.209C37.3486 63.3613 37.4658 63.5488 37.5479 63.7715C37.6416 63.9941 37.7178 64.2285 37.7764 64.4746C37.835 64.7207 37.9287 64.9316 38.0576 65.1074C38.4092 65.1309 38.7666 65.1719 39.1299 65.2305C39.4932 65.2773 39.8096 65.4238 40.0791 65.6699C40.1025 65.6816 40.1318 65.6875 40.167 65.6875C40.2256 65.6875 40.2549 65.6641 40.2549 65.6172C40.2549 65.5703 40.2842 65.5469 40.3428 65.5469H40.3955C40.7471 65.7578 41.0811 65.9922 41.3975 66.25C41.7256 66.4961 42.0479 66.7539 42.3643 67.0234C42.4229 67.0703 42.4814 67.1172 42.54 67.1641C42.6104 67.1992 42.6689 67.2461 42.7158 67.3047C42.7744 67.375 42.8271 67.457 42.874 67.5508C42.9326 67.6445 42.9854 67.7266 43.0322 67.7969C43.6182 68.8164 44.0107 69.9121 44.21 71.084C44.2334 71.2129 44.251 71.3359 44.2627 71.4531C44.2861 71.5703 44.2979 71.6816 44.2979 71.7871C44.2979 71.8926 44.3213 71.9629 44.3682 71.998C44.415 72.0215 44.4385 72.0801 44.4385 72.1738ZM43.085 73.0703C43.085 72.6016 43.0264 72.1504 42.9092 71.7168C42.9678 71.6934 43.0029 71.6582 43.0146 71.6113C43.0381 71.5527 43.0498 71.4941 43.0498 71.4355V71.3477L42.8389 70.9609C42.8271 70.7969 42.792 70.6445 42.7334 70.5039C42.6865 70.3633 42.6279 70.2227 42.5576 70.082C42.4873 69.9414 42.417 69.8008 42.3467 69.6602C42.2881 69.5195 42.2471 69.3672 42.2236 69.2031C42.0361 69.0625 41.8662 68.9043 41.7139 68.7285C41.5732 68.541 41.4443 68.3477 41.3271 68.1484C41.2451 68.1133 41.1689 68.0898 41.0986 68.0781C41.0283 68.0664 41.0049 68.002 41.0283 67.8848C40.8174 67.8262 40.624 67.7441 40.4482 67.6387C40.2842 67.5215 40.1201 67.3926 39.9561 67.252C39.6865 67.1934 39.417 67.123 39.1475 67.041C38.8896 66.9473 38.626 66.9004 38.3564 66.9004C38.1689 66.9004 37.9873 66.9355 37.8115 67.0059C37.8701 67.0996 37.8994 67.2051 37.8994 67.3223C37.8994 67.4277 37.9111 67.5332 37.9346 67.6387C38.3096 67.7324 38.5381 67.9609 38.6201 68.3242C38.5615 68.3594 38.5088 68.4062 38.4619 68.4648C38.415 68.5117 38.3682 68.5586 38.3213 68.6055C38.2861 68.6406 38.2393 68.6758 38.1807 68.7109C38.1221 68.7461 38.0518 68.7637 37.9697 68.7637C37.8057 68.7637 37.6768 68.7344 37.583 68.6758C37.501 68.6172 37.3662 68.6055 37.1787 68.6406C36.9795 68.4648 36.7861 68.2832 36.5986 68.0957C36.4111 67.8965 36.2002 67.7207 35.9658 67.5684C35.9307 67.4512 35.8721 67.3457 35.79 67.252C35.7197 67.1582 35.6436 67.0703 35.5615 66.9883C35.4912 66.8945 35.4209 66.8008 35.3506 66.707C35.292 66.6016 35.2627 66.4844 35.2627 66.3555C35.2627 66.2734 35.2686 66.2148 35.2803 66.1797C35.21 66.1562 35.1572 66.1445 35.1221 66.1445C35.0283 66.1445 34.9404 66.1797 34.8584 66.25C34.7764 66.3086 34.6826 66.3496 34.5771 66.373C34.4834 66.6543 34.3486 66.9004 34.1729 67.1113C33.9971 67.3223 33.8154 67.5273 33.6279 67.7266C33.4404 67.9258 33.2646 68.1367 33.1006 68.3594C32.9482 68.5703 32.8369 68.834 32.7666 69.1504C32.3916 69.6191 32.0459 70.1523 31.7295 70.75C31.4131 71.3359 31.1729 71.9102 31.0088 72.4727C30.7393 72.7773 30.5283 73.0996 30.376 73.4395C30.2236 73.7793 30.1357 74.1543 30.1123 74.5645C30.0537 74.5996 30.0068 74.6465 29.9717 74.7051L29.7959 75.0566C29.7725 75.1152 29.7314 75.1621 29.6729 75.1973V75.2852C29.6729 75.3789 29.6553 75.4668 29.6201 75.5488C29.585 75.6191 29.5439 75.6895 29.4971 75.7598C29.4619 75.8301 29.4268 75.9004 29.3916 75.9707C29.3564 76.0293 29.3389 76.0996 29.3389 76.1816C29.3389 76.2754 29.3623 76.3691 29.4092 76.4629C29.2803 76.4863 29.1924 76.5566 29.1455 76.6738C29.1104 76.7793 29.0576 76.873 28.9873 76.9551C28.9404 77.3301 28.8936 77.7109 28.8467 78.0977C28.7998 78.4844 28.7764 78.8652 28.7764 79.2402C28.7764 79.6738 28.8232 80.1133 28.917 80.5586C29.0225 80.6641 29.1162 80.7812 29.1982 80.9102C29.2803 81.0391 29.3623 81.1621 29.4443 81.2793C29.5381 81.3965 29.6377 81.502 29.7432 81.5957C29.8486 81.6777 29.9893 81.7305 30.165 81.7539C30.165 81.8359 30.1826 81.8945 30.2178 81.9297C30.2529 81.9648 30.2822 82.0117 30.3057 82.0703C30.5518 82.1523 30.8096 82.2168 31.0791 82.2637C31.3486 82.3223 31.6182 82.3516 31.8877 82.3516C32.0752 82.3516 32.2627 82.3281 32.4502 82.2812C32.6494 82.2344 32.8135 82.1406 32.9424 82C33.54 81.9766 34.1318 81.8359 34.7178 81.5781C35.3154 81.3203 35.8604 81.0391 36.3525 80.7344H36.7217C36.8506 80.5586 37.0088 80.418 37.1963 80.3125C37.3838 80.1953 37.5771 80.0898 37.7764 79.9961C37.8115 79.9727 37.8584 79.9492 37.917 79.9258C37.9756 79.9023 38.0225 79.8789 38.0576 79.8555C38.1865 79.7617 38.3154 79.6562 38.4443 79.5391C38.585 79.4219 38.7256 79.3105 38.8662 79.2051C39.1006 79.0293 39.3408 78.8594 39.5869 78.6953C39.833 78.5312 40.0674 78.3555 40.29 78.168C40.5244 77.9805 40.7412 77.7812 40.9404 77.5703C41.1514 77.3477 41.3271 77.1016 41.4678 76.832C41.5381 76.832 41.5908 76.8145 41.626 76.7793C41.6729 76.7324 41.708 76.6855 41.7314 76.6387C41.7666 76.5918 41.8018 76.5508 41.8369 76.5156C41.8838 76.4805 41.9482 76.4629 42.0303 76.4629C42.0303 76.3574 42.0479 76.2695 42.083 76.1992C42.1299 76.1172 42.1768 76.0469 42.2236 75.9883C42.2822 75.918 42.335 75.8535 42.3818 75.7949C42.4404 75.7363 42.4932 75.6602 42.54 75.5664V75.0742C42.7275 74.7695 42.8623 74.4473 42.9443 74.1074C43.0381 73.7676 43.085 73.4219 43.085 73.0703Z" fill="#FF5E62"/>
<path d="M66.6396 82.7207C66.6162 82.9551 66.5342 83.1367 66.3936 83.2656C66.2529 83.4062 66.0713 83.4766 65.8486 83.4766C65.7314 83.4766 65.6201 83.459 65.5146 83.4238C65.292 83.5996 65.0283 83.7344 64.7236 83.8281C64.4189 83.9219 64.1318 84.0156 63.8623 84.1094C63.5342 84.0977 63.2119 84.0684 62.8955 84.0215C62.5791 83.9746 62.251 83.9629 61.9111 83.9863C61.7939 83.9043 61.6709 83.8516 61.542 83.8281C61.4131 83.8047 61.2783 83.7871 61.1377 83.7754C61.0088 83.7754 60.8799 83.7578 60.751 83.7227C60.6338 83.6875 60.5166 83.6055 60.3994 83.4766H59.5205C59.4385 83.4766 59.3154 83.4355 59.1514 83.3535C58.999 83.2832 58.8232 83.207 58.624 83.125C58.4365 83.043 58.2314 82.9668 58.0088 82.8965C57.7979 82.8262 57.5986 82.791 57.4111 82.791H57.3057C57.1768 82.6855 57.0244 82.6035 56.8486 82.5449C56.6846 82.498 56.5146 82.4512 56.3389 82.4043C56.1631 82.3691 55.9932 82.3281 55.8291 82.2812C55.665 82.2344 55.5244 82.1699 55.4072 82.0879C55.29 82.0059 55.1553 81.9238 55.0029 81.8418C54.8506 81.748 54.6924 81.707 54.5283 81.7188C54.3057 81.5898 54.0713 81.4785 53.8252 81.3848C53.5908 81.291 53.3506 81.2031 53.1045 81.1211L52.3838 80.8574C52.1494 80.7637 51.915 80.6523 51.6807 80.5234C51.6455 80.5352 51.6045 80.5352 51.5576 80.5234C51.5107 80.5117 51.4697 80.5059 51.4346 80.5059C51.3643 80.5059 51.3232 80.5293 51.3115 80.5762C51.2295 80.4941 51.1357 80.4238 51.0303 80.3652C50.9365 80.3066 50.8428 80.2363 50.749 80.1543C50.7021 80.166 50.6553 80.1777 50.6084 80.1895C50.5732 80.1895 50.5264 80.1895 50.4678 80.1895C50.3623 80.1895 50.2568 80.1777 50.1514 80.1543C50.0576 80.1309 49.9639 80.1016 49.8701 80.0664C49.7646 80.3008 49.6943 80.5645 49.6592 80.8574C49.624 81.1504 49.5947 81.4551 49.5713 81.7715C49.5596 82.0762 49.542 82.3809 49.5186 82.6855C49.4951 83.002 49.4424 83.2891 49.3604 83.5469C49.3838 83.6406 49.3955 83.7344 49.3955 83.8281V84.127C49.3955 84.3262 49.4248 84.4844 49.4834 84.6016C49.46 84.707 49.4365 84.8066 49.4131 84.9004C49.4014 84.9941 49.3838 85.0879 49.3604 85.1816C49.3721 85.3105 49.3779 85.4277 49.3779 85.5332C49.3896 85.6504 49.3955 85.7734 49.3955 85.9023V86.2012C49.3955 86.3066 49.3838 86.4121 49.3604 86.5176C49.2432 86.5879 49.126 86.6523 49.0088 86.7109C48.8916 86.7812 48.7744 86.8633 48.6572 86.957C48.5752 86.8047 48.4346 86.7168 48.2354 86.6934C48.1885 86.752 48.1533 86.8281 48.1299 86.9219C48.1182 87.0273 48.0654 87.0801 47.9717 87.0801C47.8076 86.9512 47.6729 86.8457 47.5674 86.7637C47.4619 86.6816 47.3447 86.5586 47.2158 86.3945C47.2041 86.3711 47.1982 86.3418 47.1982 86.3066C47.1982 86.248 47.21 86.1953 47.2334 86.1484C47.2568 86.1016 47.2686 86.0547 47.2686 86.0078C47.2686 85.8672 47.251 85.7441 47.2158 85.6387C47.1924 85.4863 47.1748 85.334 47.1631 85.1816C47.1514 85.041 47.1455 84.9004 47.1455 84.7598C47.1455 84.5605 47.1572 84.3672 47.1807 84.1797C47.2158 83.9922 47.2744 83.7988 47.3564 83.5996C47.4854 83.2598 47.5732 82.9023 47.6201 82.5273C47.6787 82.1523 47.7197 81.7773 47.7432 81.4023C47.7666 81.0156 47.7783 80.6289 47.7783 80.2422C47.79 79.8555 47.8135 79.4863 47.8486 79.1348C47.7666 78.9473 47.667 78.8008 47.5498 78.6953C47.4443 78.5781 47.3916 78.3965 47.3916 78.1504C47.3916 77.9277 47.4619 77.7578 47.6025 77.6406C47.7432 77.5117 47.8662 77.3594 47.9717 77.1836C47.9482 77.1133 47.9658 77.0664 48.0244 77.043L48.2354 75.1973C48.2471 75.0684 48.2646 74.9277 48.2881 74.7754C48.3232 74.623 48.3467 74.4824 48.3584 74.3535C48.3818 74.084 48.3936 73.8203 48.3936 73.5625C48.3936 73.3047 48.4053 73.0469 48.4287 72.7891C48.4873 72.2148 48.54 71.6465 48.5869 71.084C48.6455 70.5215 48.6748 69.959 48.6748 69.3965C48.6748 69.127 48.6631 68.8574 48.6396 68.5879C48.6279 68.3184 48.5928 68.0488 48.5342 67.7793C48.335 67.8379 48.1123 67.9023 47.8662 67.9727C47.6318 68.0312 47.4326 68.1367 47.2686 68.2891H47.1279C46.8232 68.2891 46.5361 68.3477 46.2666 68.4648C46.0088 68.582 45.7451 68.6934 45.4756 68.7988C45.3584 68.8574 45.2412 68.8984 45.124 68.9219C45.0068 68.9336 44.8838 68.957 44.7549 68.9922C44.6963 69.0039 44.6318 69.0391 44.5615 69.0977C44.4912 69.1562 44.4268 69.1973 44.3682 69.2207L44.0693 69.291C43.9873 69.3145 43.9521 69.3672 43.9639 69.4492C43.9756 69.5312 43.9463 69.584 43.876 69.6074C43.8174 69.666 43.7354 69.6953 43.6299 69.6953C43.5244 69.6836 43.4424 69.6777 43.3838 69.6777H43.3135C43.0205 69.8887 42.7393 70.0703 42.4697 70.2227C42.1885 70.3633 41.8604 70.457 41.4854 70.5039L41.0986 70.75C40.9697 70.832 40.8232 70.873 40.6592 70.873C40.5303 70.873 40.4248 70.8496 40.3428 70.8027C40.249 70.6621 40.1787 70.5039 40.1318 70.3281C40.0732 70.1523 39.9795 70 39.8506 69.8711C39.9092 69.8125 39.9502 69.7363 39.9736 69.6426C39.9854 69.5371 40.0029 69.4434 40.0264 69.3613C40.3779 69.209 40.7354 69.0625 41.0986 68.9219C41.4502 68.7812 41.79 68.6113 42.1182 68.4121C42.1533 68.4238 42.2061 68.4297 42.2764 68.4297C42.3936 68.4297 42.499 68.4121 42.5928 68.377C42.6865 68.3418 42.7803 68.3008 42.874 68.2539C42.9678 68.207 43.0615 68.166 43.1553 68.1309C43.249 68.0957 43.3604 68.084 43.4893 68.0957C43.8877 67.873 44.3096 67.6914 44.7549 67.5508C45.2002 67.4102 45.6221 67.2168 46.0205 66.9707C46.0791 66.9707 46.126 66.9824 46.1611 67.0059C46.208 67.0293 46.2549 67.041 46.3018 67.041C46.3486 67.041 46.3779 67.0352 46.3896 67.0234C46.46 66.9297 46.5537 66.8652 46.6709 66.8301C46.7881 66.7832 46.9053 66.748 47.0225 66.7246C47.1514 66.6895 47.2686 66.6484 47.374 66.6016C47.4912 66.543 47.5674 66.4551 47.6025 66.3379C47.6611 66.3848 47.749 66.4082 47.8662 66.4082C48.0654 66.4082 48.2471 66.3672 48.4111 66.2852C48.5869 66.2031 48.7744 66.1621 48.9736 66.1621C49.0205 66.1621 49.0615 66.1738 49.0967 66.1973C49.1436 66.209 49.1904 66.2148 49.2373 66.2148C49.3311 66.2148 49.3779 66.1855 49.3779 66.127C49.3896 66.0684 49.4248 66.0156 49.4834 65.9688C50.1982 65.8398 50.9072 65.7227 51.6104 65.6172C52.3252 65.5117 53.0459 65.459 53.7725 65.459C53.8779 65.3887 53.9951 65.3535 54.124 65.3535C54.2529 65.3535 54.3701 65.3887 54.4756 65.459C54.6748 65.4355 54.874 65.418 55.0732 65.4062C55.2725 65.3945 55.4717 65.3887 55.6709 65.3887C56.1279 65.3887 56.5967 65.418 57.0771 65.4766C57.5576 65.5352 58.0322 65.6289 58.501 65.7578C58.9814 65.875 59.4385 66.0391 59.8721 66.25C60.3057 66.4492 60.71 66.6895 61.085 66.9707C61.1201 67.0762 61.167 67.1816 61.2256 67.2871C61.2842 67.3926 61.3604 67.4746 61.4541 67.5332C61.4541 67.5566 61.4482 67.5742 61.4365 67.5859C61.4365 67.5977 61.4365 67.6152 61.4365 67.6387C61.4365 67.7676 61.4717 67.8906 61.542 68.0078C61.624 68.125 61.665 68.2656 61.665 68.4297C61.665 68.5938 61.6357 68.7578 61.5771 68.9219C61.5303 69.0859 61.5127 69.25 61.5244 69.4141C61.3955 69.6016 61.2842 69.7715 61.1904 69.9238C61.1084 70.0762 61.0557 70.2695 61.0322 70.5039C60.8213 70.7148 60.6338 70.9492 60.4697 71.207C60.3057 71.4531 60.1357 71.6992 59.96 71.9453C59.7959 72.1797 59.6084 72.3965 59.3975 72.5957C59.1865 72.7949 58.9346 72.9531 58.6416 73.0703C58.6299 73.1875 58.583 73.3164 58.501 73.457H58.1318C58.0967 73.5508 58.0381 73.6211 57.9561 73.668L57.71 73.8086C57.6279 73.8555 57.5576 73.9141 57.499 73.9844C57.4521 74.0547 57.4287 74.1543 57.4287 74.2832C57.4053 74.2715 57.376 74.2656 57.3408 74.2656C57.2236 74.2656 57.083 74.3242 56.9189 74.4414C56.7666 74.5586 56.6436 74.6523 56.5498 74.7227C56.3506 74.8633 56.1455 74.9922 55.9346 75.1094C55.7354 75.2266 55.5596 75.3906 55.4072 75.6016C54.9385 75.8008 54.4932 76.0352 54.0713 76.3047C53.6494 76.5625 53.1924 76.7676 52.7002 76.9199C52.5127 77.1191 52.29 77.2773 52.0322 77.3945C51.7861 77.5 51.5459 77.6172 51.3115 77.7461V77.7988C51.3115 77.8926 51.3467 77.9863 51.417 78.0801C51.4873 78.1621 51.5693 78.2383 51.6631 78.3086C51.7568 78.3672 51.8564 78.4082 51.9619 78.4316C52.0791 78.4551 52.1787 78.4551 52.2607 78.4316C52.4951 78.6426 52.7646 78.8125 53.0693 78.9414C53.374 79.0703 53.6904 79.1875 54.0186 79.293C54.3467 79.3984 54.6689 79.5098 54.9854 79.627C55.3018 79.7441 55.5947 79.8906 55.8643 80.0664H56.2861C56.5557 80.3008 56.8721 80.4766 57.2354 80.5938C57.6104 80.7109 57.9678 80.8164 58.3076 80.9102C58.4482 81.0391 58.624 81.1387 58.835 81.209C59.0576 81.2676 59.2686 81.2969 59.4678 81.2969H59.5732C59.6201 81.2969 59.6611 81.291 59.6963 81.2793V81.3145C59.6963 81.373 59.7139 81.4141 59.749 81.4375C59.7842 81.4492 59.8193 81.4609 59.8545 81.4727C59.9014 81.4727 59.9424 81.4844 59.9775 81.5078C60.0244 81.5195 60.0596 81.543 60.083 81.5781H60.2588C60.5049 81.5781 60.7393 81.6309 60.9619 81.7363C61.1846 81.8301 61.4189 81.877 61.665 81.877C61.7705 81.877 61.8525 81.8652 61.9111 81.8418C61.9814 81.8652 62.0342 81.9121 62.0693 81.9824C62.1045 82.0527 62.1514 82.1113 62.21 82.1582C62.292 82.1465 62.3682 82.1348 62.4385 82.123C62.5088 82.123 62.5791 82.123 62.6494 82.123C62.9072 82.123 63.1475 82.1523 63.3701 82.2109C63.5928 82.2695 63.8213 82.3574 64.0557 82.4746C64.4307 82.3105 64.7998 82.1758 65.1631 82.0703C65.5264 81.9648 65.9131 81.9121 66.3232 81.9121V81.9473C66.3232 82.0879 66.3584 82.2168 66.4287 82.334C66.5107 82.4629 66.5811 82.5918 66.6396 82.7207ZM59.9072 68.6934C59.9072 68.5527 59.8779 68.4414 59.8193 68.3594C59.7725 68.2773 59.708 68.207 59.626 68.1484C59.5439 68.0781 59.4561 68.0137 59.3623 67.9551C59.2803 67.8965 59.2041 67.8203 59.1338 67.7266C58.8291 67.6328 58.5303 67.5273 58.2373 67.4102C57.9443 67.293 57.6455 67.1934 57.3408 67.1113C57.1885 67.0762 57.0361 67.0469 56.8838 67.0234C56.7314 66.9883 56.5791 66.9707 56.4268 66.9707H56.04C55.9697 66.959 55.8936 66.9473 55.8115 66.9355C55.7412 66.9121 55.6709 66.8945 55.6006 66.8828C55.4365 66.8594 55.2725 66.8418 55.1084 66.8301C54.9561 66.8184 54.7979 66.8125 54.6338 66.8125C54.3291 66.8125 54.0244 66.8242 53.7197 66.8477L52.8057 66.918C52.6768 66.9297 52.542 66.9355 52.4014 66.9355C52.2607 66.9355 52.1318 66.9473 52.0146 66.9707C51.9561 66.9824 51.874 67.0117 51.7686 67.0586C51.6631 67.0938 51.5518 67.1348 51.4346 67.1816C51.3174 67.2168 51.2002 67.2578 51.083 67.3047C50.9775 67.3516 50.8838 67.3867 50.8018 67.4102C50.8135 67.4922 50.8193 67.5742 50.8193 67.6562V67.8848C50.8193 68.0605 50.8135 68.2363 50.8018 68.4121C50.79 68.5879 50.7666 68.7637 50.7314 68.9395C50.7197 69.0098 50.7021 69.0801 50.6787 69.1504C50.6553 69.2207 50.6377 69.291 50.626 69.3613C50.6025 69.4668 50.5908 69.584 50.5908 69.7129V70.0469C50.5674 70.3164 50.5498 70.5801 50.5381 70.8379C50.5264 71.0957 50.5088 71.3594 50.4854 71.6289C50.415 72.4023 50.3389 73.1699 50.2568 73.9316C50.1865 74.6934 50.1396 75.4609 50.1162 76.2344C50.5029 76.1523 50.8721 76.0293 51.2236 75.8652C51.5752 75.7012 51.9209 75.5254 52.2607 75.3379C52.6006 75.1387 52.9404 74.9453 53.2803 74.7578C53.6201 74.5703 53.9775 74.4121 54.3525 74.2832C54.4463 74.1543 54.5576 74.0488 54.6865 73.9668C54.8271 73.8848 54.9443 73.7793 55.0381 73.6504C55.1553 73.6504 55.2432 73.627 55.3018 73.5801C55.3604 73.5215 55.4365 73.4805 55.5303 73.457C56.0928 72.9648 56.667 72.502 57.2529 72.0684C57.8389 71.6348 58.4014 71.1719 58.9404 70.6797C58.9873 70.5156 59.0635 70.3574 59.1689 70.2051C59.2861 70.041 59.3975 69.877 59.5029 69.7129C59.6084 69.5488 59.7021 69.3848 59.7842 69.2207C59.8662 69.0566 59.9072 68.8809 59.9072 68.6934Z" fill="#FF5E62"/>
</svg>
