<svg  viewBox="0 0 512 448" fill="none" xmlns="http://www.w3.org/2000/svg">
<path id="plogo" stroke="#E7EAEE" stroke-width="4" d="M342.383 239.352C319.344 203.41 280.105 181.949 237.418 181.949C194.734 181.949 155.492 203.41 132.457 239.352L76.9413 325.957C67.7304 340.328 63.4804 356.926 64.6484 373.953C65.8163 390.984 72.2968 406.844 83.3867 419.824C94.4843 432.801 109.148 441.668 125.793 445.473C142.437 449.273 159.5 447.652 175.133 440.781L176.152 440.328C215.492 423.371 260.457 423.523 299.699 440.781C309.82 445.23 320.543 447.48 331.363 447.48C337.246 447.48 343.164 446.813 349.027 445.477C365.672 441.676 380.336 432.809 391.437 419.832C402.531 406.855 409.016 390.992 410.187 373.961C411.359 356.926 407.109 340.328 397.898 325.953L342.383 239.352ZM368.629 400.324C354.508 416.832 331.664 422.051 311.781 413.309C288.148 402.914 262.781 397.719 237.406 397.719C212.055 397.719 186.691 402.91 163.074 413.293L162.402 413.59C142.672 421.934 120.164 416.648 106.199 400.324C92.0937 383.812 90.4882 360.438 102.207 342.152L157.726 255.547C175.219 228.258 205.008 211.965 237.418 211.965C269.828 211.965 299.621 228.258 317.117 255.547L372.629 342.148C384.352 360.441 382.742 383.82 368.629 400.324Z" fill=""/>
<path id="plogo" stroke="#E7EAEE" stroke-width="4" d="M91.8945 239.238C108.41 232.895 120.957 219.586 127.226 201.762C133.187 184.801 132.699 165.652 125.844 147.84C118.984 130.039 106.508 115.508 90.7148 106.918C74.1171 97.8984 55.8867 96.4297 39.3984 102.785C6.22649 115.539 -8.99616 156.531 5.46868 194.184C17.0234 224.152 43.9726 243.07 71.2187 243.07C78.1757 243.07 85.1523 241.836 91.8945 239.238ZM33.4765 183.402C24.9531 161.215 32.4413 137.613 50.1796 130.793C53.3827 129.559 56.7695 128.945 60.2265 128.945C65.5624 128.945 71.0742 130.402 76.3788 133.289C85.9179 138.473 93.539 147.473 97.8359 158.625C102.129 169.785 102.512 181.566 98.9101 191.805C95.6093 201.187 89.2929 208.086 81.1288 211.223L81.1132 211.23C63.3984 218.059 42.0273 205.57 33.4765 183.402Z" fill=""/>
<path id="plogo" stroke="#E7EAEE" stroke-width="4" d="M199.613 171.387C241.082 171.387 274.82 132.949 274.82 85.7031C274.82 38.4453 241.082 0 199.613 0C158.148 0 124.414 38.4453 124.414 85.7031C124.414 132.949 158.148 171.387 199.613 171.387ZM199.613 30.0117C224.531 30.0117 244.809 54.9961 244.809 85.7031C244.809 116.398 224.531 141.375 199.613 141.375C174.695 141.375 154.426 116.398 154.426 85.7031C154.426 54.9961 174.695 30.0117 199.613 30.0117Z" fill=""/>
<path id="plogo" stroke="#E7EAEE" stroke-width="4" d="M329.496 192.438H329.5C335.879 194.555 342.387 195.566 348.867 195.566C379.109 195.566 408.582 173.555 419.828 139.727C426.305 120.254 425.879 99.6641 418.629 81.7539C411.043 63.0078 396.984 49.3984 379.039 43.4297C361.094 37.4688 341.676 39.9531 324.375 50.4297C307.848 60.4414 295.184 76.6758 288.719 96.1484C275.066 137.227 293.359 180.422 329.496 192.438ZM317.199 105.613C321.422 92.8984 329.492 82.4219 339.926 76.1016C349.578 70.2539 360.109 68.7656 369.574 71.9102C379.035 75.0586 386.574 82.5508 390.809 93.0117C395.383 104.316 395.578 117.543 391.348 130.258C382.914 155.633 359.414 170.75 338.965 163.957C318.531 157.16 308.766 130.988 317.199 105.613Z" fill=""/>
<path id="plogo" stroke="#E7EAEE" stroke-width="4" d="M487.875 182.438L487.863 182.426C459.266 161.301 416.496 170.457 392.516 202.848C368.559 235.254 372.305 278.82 400.859 299.961C411.273 307.676 423.578 311.363 436.172 311.363C458.121 311.363 480.957 300.16 496.219 279.559C520.176 247.152 516.434 203.586 487.875 182.438ZM472.098 261.703C457.937 280.816 433.996 287.156 418.719 275.84C403.453 264.539 402.523 239.797 416.644 220.695C426.031 208.016 439.742 200.961 452.379 200.961C458.769 200.961 464.887 202.766 470.027 206.566C485.281 217.879 486.207 242.613 472.098 261.703Z" fill=""/>
</svg>
